<svg width="84" height="95" viewBox="0 0 84 95" fill="none" xmlns="http://www.w3.org/2000/svg">
<path d="M43.9693 1.11392C42.7474 0.422759 41.2526 0.42276 40.0307 1.11392L2.03067 22.608C0.775811 23.3178 0 24.648 0 26.0897V68.9103C0 70.352 0.775813 71.6822 2.03067 72.392L40.0307 93.8861C41.2526 94.5772 42.7474 94.5772 43.9693 93.8861L81.9693 72.392C83.2242 71.6822 84 70.352 84 68.9103V26.0897C84 24.648 83.2242 23.3178 81.9693 22.608L43.9693 1.11392Z" fill="#008FD2"/>
<path fill-rule="evenodd" clip-rule="evenodd" d="M43 26H40V27V33V38H31.8182C31.4324 38 31.0624 38.1522 30.7897 38.4231C30.5169 38.694 30.3636 39.0614 30.3636 39.4444V41.3333C30.3636 41.8856 29.9159 42.3333 29.3636 42.3333H27C26.4477 42.3333 26 42.781 26 43.3333V44.4949C26 44.8966 26.3256 45.2222 26.7273 45.2222C27.1289 45.2222 27.4545 45.5478 27.4545 45.9495V60.3838C27.4545 60.7855 27.1289 61.1111 26.7273 61.1111C26.3256 61.1111 26 61.4367 26 61.8384V63C26 63.5523 26.4477 64 27 64H57C57.5523 64 58 63.5523 58 63V61.8384C58 61.4367 57.6744 61.1111 57.2727 61.1111C56.8711 61.1111 56.5455 60.7855 56.5455 60.3838V45.9495C56.5455 45.5478 56.8711 45.2222 57.2727 45.2222C57.6744 45.2222 58 44.8966 58 44.4949V43.3333C58 42.781 57.5523 42.3333 57 42.3333H54.6364C54.0841 42.3333 53.6364 41.8856 53.6364 41.3333V39.4444C53.6364 39.0614 53.4831 38.694 53.2103 38.4231C52.9376 38.1522 52.5676 38 52.1818 38H43V33H51V27H43V26ZM53.6364 46.2222C53.6364 45.6699 53.1886 45.2222 52.6364 45.2222H31.3636C30.8114 45.2222 30.3636 45.6699 30.3636 46.2222V60.1111C30.3636 60.6634 30.8114 61.1111 31.3636 61.1111H33.7273C34.2796 61.1111 34.7273 60.6634 34.7273 60.1111V52C34.7273 51.4477 35.175 51 35.7273 51H36.6364C37.1886 51 37.6364 51.4477 37.6364 52V60.1111C37.6364 60.6634 38.0841 61.1111 38.6364 61.1111H39.5455C40.0977 61.1111 40.5455 60.6634 40.5455 60.1111V52C40.5455 51.4477 40.9932 51 41.5455 51H42.4545C43.0068 51 43.4545 51.4477 43.4545 52V60.1111C43.4545 60.6634 43.9023 61.1111 44.4545 61.1111H45.3636C45.9159 61.1111 46.3636 60.6634 46.3636 60.1111V52C46.3636 51.4477 46.8114 51 47.3636 51H48.2727C48.825 51 49.2727 51.4477 49.2727 52V60.1111C49.2727 60.6634 49.7204 61.1111 50.2727 61.1111H52.6364C53.1886 61.1111 53.6364 60.6634 53.6364 60.1111V46.2222ZM33.9949 40.8889C33.5961 40.8889 33.2727 41.2122 33.2727 41.6111C33.2727 42.01 33.5961 42.3333 33.9949 42.3333H50.0051C50.4039 42.3333 50.7273 42.01 50.7273 41.6111C50.7273 41.2122 50.4039 40.8889 50.0051 40.8889H33.9949Z" fill="white"/>
</svg>
