<svg width="84" height="95" viewBox="0 0 84 95" fill="none" xmlns="http://www.w3.org/2000/svg">
<path d="M43.9693 1.11392C42.7474 0.422759 41.2526 0.42276 40.0307 1.11392L2.03067 22.608C0.775811 23.3178 0 24.648 0 26.0897V68.9103C0 70.352 0.775813 71.6822 2.03067 72.392L40.0307 93.8861C41.2526 94.5772 42.7474 94.5772 43.9693 93.8861L81.9693 72.392C83.2242 71.6822 84 70.352 84 68.9103V26.0897C84 24.648 83.2242 23.3178 81.9693 22.608L43.9693 1.11392Z" fill="#008FD2"/>
<path d="M27 59.5C27 59.2239 27.2239 59 27.5 59H56.5C56.7761 59 57 59.2239 57 59.5V61.5C57 61.7761 56.7761 62 56.5 62H27.5C27.2239 62 27 61.7761 27 61.5V59.5Z" fill="white"/>
<path d="M55.8416 41.3783C56.9612 41.3783 57.4287 39.9412 56.5192 39.2788L42.6811 29.2226C42.4835 29.078 42.2449 29 41.9999 29C41.7549 29 41.5163 29.078 41.3187 29.2226L27.4806 39.2788C26.5711 39.9376 27.0386 41.3783 28.1619 41.3783H30.4048V54.9168H27.7959C27.6364 54.9168 27.506 55.0471 27.506 55.2064V57.0888C27.506 57.2481 27.6364 57.3784 27.7959 57.3784H56.2039C56.3634 57.3784 56.4938 57.2481 56.4938 57.0888V55.2064C56.4938 55.0471 56.3634 54.9168 56.2039 54.9168H53.595V41.3783H55.8416ZM41.9999 31.7747L51.8232 38.9132H32.1767L41.9999 31.7747ZM33.0137 41.3783H37.2532V54.9168H33.0137V41.3783ZM39.8621 41.3783H44.1015V54.9168H39.8621V41.3783ZM50.9861 54.9168H46.7104V41.3783H50.9861V54.9168Z" fill="white"/>
</svg>
