<svg width="84" height="95" viewBox="0 0 84 95" fill="none" xmlns="http://www.w3.org/2000/svg">
<path d="M43.9693 1.11392C42.7474 0.422759 41.2526 0.42276 40.0307 1.11392L2.03067 22.608C0.775811 23.3178 0 24.648 0 26.0897V68.9103C0 70.352 0.775813 71.6822 2.03067 72.392L40.0307 93.8861C41.2526 94.5772 42.7474 94.5772 43.9693 93.8861L81.9693 72.392C83.2242 71.6822 84 70.352 84 68.9103V26.0897C84 24.648 83.2242 23.3178 81.9693 22.608L43.9693 1.11392Z" fill="#008FD2"/>
<path fill-rule="evenodd" clip-rule="evenodd" d="M49 43.5C49 45.2239 48.3152 46.8772 47.0962 48.0962C45.8772 49.3152 44.2239 50 42.5 50C40.7761 50 39.1228 49.3152 37.9038 48.0962C36.6848 46.8772 36 45.2239 36 43.5C36 41.7761 36.6848 40.1228 37.9038 38.9038C39.1228 37.6848 40.7761 37 42.5 37C44.2239 37 45.8772 37.6848 47.0962 38.9038C48.3152 40.1228 49 41.7761 49 43.5ZM45.75 43.5C45.75 44.362 45.4076 45.1886 44.7981 45.7981C44.1886 46.4076 43.362 46.75 42.5 46.75C41.638 46.75 40.8114 46.4076 40.2019 45.7981C39.5924 45.1886 39.25 44.362 39.25 43.5C39.25 42.638 39.5924 41.8114 40.2019 41.2019C40.8114 40.5924 41.638 40.25 42.5 40.25C43.362 40.25 44.1886 40.5924 44.7981 41.2019C45.4076 41.8114 45.75 42.638 45.75 43.5Z" fill="white"/>
<path fill-rule="evenodd" clip-rule="evenodd" d="M42.5 32C33.9398 32 27 38.9398 27 47.5C27 56.0602 33.9398 63 42.5 63C51.0602 63 58 56.0602 58 47.5C58 38.9398 51.0602 32 42.5 32ZM29.8182 47.5C29.8182 50.445 30.8229 53.1561 32.5067 55.3092C33.6893 53.7562 35.2149 52.4977 36.9643 51.6319C38.7137 50.7661 40.6396 50.3165 42.5916 50.3182C44.5183 50.3164 46.42 50.7543 48.1518 51.5987C49.8836 52.4431 51.3998 53.6717 52.5849 55.1908C53.8058 53.5895 54.6278 51.7205 54.983 49.7385C55.3382 47.7564 55.2162 45.7183 54.6273 43.7927C54.0384 41.8671 52.9994 40.1094 51.5964 38.6651C50.1933 37.2207 48.4664 36.1313 46.5587 35.4868C44.651 34.8424 42.6172 34.6615 40.6257 34.9591C38.6342 35.2567 36.7422 36.0242 35.1062 37.1982C33.4702 38.3722 32.1373 39.9189 31.2177 41.7103C30.2982 43.5017 29.8184 45.4864 29.8182 47.5ZM42.5 60.1818C39.5887 60.1862 36.7654 59.1847 34.5076 57.3467C35.4164 56.0458 36.626 54.9836 38.0335 54.2505C39.4409 53.5175 41.0047 53.1352 42.5916 53.1364C44.1587 53.1351 45.7036 53.5078 47.0978 54.2234C48.492 54.939 49.6953 55.9769 50.6079 57.2509C48.3326 59.1485 45.4627 60.186 42.5 60.1818Z" fill="white"/>
</svg>
