<svg width="445" height="273" viewBox="0 0 445 273" fill="none" xmlns="http://www.w3.org/2000/svg">
<g clip-path="url(#clip0)">
<path d="M359.742 207.408L327.789 273L245.295 256.183L359.742 207.408Z" fill="white"/>
<path d="M52.0904 148.366L45.6511 215.756L0.121582 206.707L52.0904 148.366Z" fill="white"/>
<path d="M225.977 186.631L116.633 232.603V161.832L225.977 186.631Z" fill="white"/>
<path d="M176.317 52.5832L117.089 123.11L117.089 80.6418L176.317 52.5832Z" fill="white"/>
<path d="M394.337 118.906L281.227 166.189L347.744 62.1494L394.337 118.906Z" fill="white"/>
<path d="M192.749 90.2079L257.019 65.0435L274.666 98.6163L202.924 127.619L192.749 90.2079Z" fill="white"/>
<path d="M308.168 2.37636L330.31 33.451L247.178 25.9261L308.168 2.37636Z" fill="white"/>
<path d="M444.484 0.0304871L431.545 27.8149L393.791 0.0304871H444.484Z" fill="white"/>
<path d="M226.402 0.0304654L176.317 18.6753L194.602 0L226.402 0.0304654Z" fill="white"/>
</g>
<defs>
<clipPath id="clip0">
<rect width="445" height="273" fill="white"/>
</clipPath>
</defs>
</svg>
