<svg width="36" height="40" viewBox="0 0 36 40" fill="none" xmlns="http://www.w3.org/2000/svg">
<path d="M31.7615 0H4.23854C1.89766 0 0 1.91878 0 4.28571V35.7143C0 38.0812 1.89766 40 4.23854 40H31.7615C34.1023 40 36 38.0812 36 35.7143V4.28571C36 1.91878 34.1023 0 31.7615 0ZM33.1743 35.7143C33.1743 36.5033 32.5417 37.1429 31.7614 37.1429H4.23854C3.45822 37.1429 2.82566 36.5033 2.82566 35.7143V4.28571C2.82566 3.49671 3.45822 2.85711 4.23854 2.85711H31.7615C32.5418 2.85711 33.1743 3.49671 33.1743 4.28571V35.7143H33.1743Z" fill="#008FD2"/>
<path d="M11.0602 8.57129H8.47733C7.69701 8.57129 7.06445 9.21088 7.06445 9.99989C7.06445 10.7889 7.69701 11.4285 8.47733 11.4285H11.0602C11.8405 11.4285 12.4731 10.7889 12.4731 9.99989C12.4731 9.21088 11.8405 8.57129 11.0602 8.57129Z" fill="#008FD2"/>
<path d="M27.3552 8.57129H16.5045C15.8386 8.57129 15.2988 9.21088 15.2988 9.99989C15.2988 10.7889 15.8386 11.4285 16.5045 11.4285H27.3552C28.0211 11.4285 28.5608 10.7889 28.5608 9.99989C28.5608 9.21088 28.021 8.57129 27.3552 8.57129Z" fill="#008FD2"/>
<path d="M11.0602 18.5713H8.47733C7.69701 18.5713 7.06445 19.2109 7.06445 19.9999C7.06445 20.7889 7.69701 21.4284 8.47733 21.4284H11.0602C11.8405 21.4284 12.4731 20.7888 12.4731 19.9998C12.4731 19.2108 11.8405 18.5713 11.0602 18.5713Z" fill="#008FD2"/>
<path d="M27.3552 18.5713H16.5045C15.8386 18.5713 15.2988 19.2109 15.2988 19.9999C15.2988 20.7889 15.8386 21.4284 16.5045 21.4284H27.3552C28.0211 21.4284 28.5608 20.7888 28.5608 19.9998C28.5608 19.2108 28.021 18.5713 27.3552 18.5713Z" fill="#008FD2"/>
<path d="M11.0602 28.5713H8.47733C7.69701 28.5713 7.06445 29.2109 7.06445 29.9999C7.06445 30.7889 7.69701 31.4285 8.47733 31.4285H11.0602C11.8405 31.4285 12.4731 30.7889 12.4731 29.9999C12.4731 29.2109 11.8405 28.5713 11.0602 28.5713Z" fill="#008FD2"/>
<path d="M27.3552 28.5713H16.5045C15.8386 28.5713 15.2988 29.2109 15.2988 29.9999C15.2988 30.7889 15.8386 31.4285 16.5045 31.4285H27.3552C28.0211 31.4285 28.5608 30.7889 28.5608 29.9999C28.5608 29.2109 28.021 28.5713 27.3552 28.5713Z" fill="#008FD2"/>
</svg>
