<svg width="36" height="36" viewBox="0 0 38 38" fill="none" xmlns="http://www.w3.org/2000/svg">
<path d="M19 5.01777C18.3071 5.01777 17.7453 5.57956 17.7453 6.27251C17.7453 6.96546 18.3071 7.52724 19 7.52724C22.3797 7.52724 25.1295 10.2767 25.1295 13.6556C25.1295 14.3486 25.6913 14.9104 26.3842 14.9104C27.0772 14.9104 27.639 14.3486 27.639 13.6556C27.639 8.89252 23.7638 5.01777 19 5.01777Z" fill="#008FD2" stroke="#008FD2" stroke-width="0.4"/>
<path d="M16.2402 1.08677L16.2402 1.08677C11.3976 2.09866 7.47286 5.98581 6.43965 10.8585L6.63531 10.9L6.43965 10.8585C5.56826 14.9683 6.64217 19.0983 9.38829 22.1855L9.53772 22.0526L9.38829 22.1855C10.678 23.6353 11.4167 25.5489 11.4167 27.4371V29.5466C11.4167 30.997 12.3392 32.2344 13.6271 32.7061C14.1062 35.2043 16.2959 37.2 18.9999 37.2C21.7031 37.2 23.8935 35.205 24.3727 32.7061C25.6606 32.2344 26.583 30.997 26.583 29.5465V27.4371C26.583 25.5471 27.3229 23.656 28.674 22.1146C30.7264 19.7732 31.8567 16.7688 31.8567 13.6553C31.8567 5.54309 24.4309 -0.624392 16.2402 1.08677ZM8.89458 11.3791L8.69893 11.3376L8.89458 11.3791C9.71623 7.50392 12.876 4.35348 16.7536 3.54327L16.7127 3.3475L16.7536 3.54327C23.3813 2.15822 29.3472 7.13391 29.3472 13.6553C29.3472 16.1601 28.438 18.5769 26.7869 20.4606C25.332 22.1204 24.4191 24.1149 24.154 26.1824H13.846C13.5816 24.1142 12.6729 22.1022 11.2634 20.5176L11.114 20.6506L11.2634 20.5176C9.05394 18.0338 8.18944 14.7044 8.89458 11.3791ZM18.9999 34.6906C17.8339 34.6906 16.7911 33.9477 16.3124 32.9038H21.6873C21.2087 33.9477 20.1659 34.6906 18.9999 34.6906ZM24.0736 29.5466C24.0736 30.0177 23.6899 30.4013 23.2188 30.4013H14.7809C14.3098 30.4013 13.9262 30.0177 13.9262 29.5466V28.6919H24.0736V29.5466Z" fill="#008FD2" stroke="#008FD2" stroke-width="0.4"/>
<path d="M4.1642 13.4553H2.05473C1.36178 13.4553 0.8 14.0171 0.8 14.71C0.8 15.403 1.36178 15.9647 2.05473 15.9647H4.1642C4.85715 15.9647 5.41894 15.403 5.41894 14.71C5.41894 14.0171 4.85715 13.4553 4.1642 13.4553Z" fill="#008FD2" stroke="#008FD2" stroke-width="0.4"/>
<path d="M3.24666 6.74955L4.73825 8.24115C5.22826 8.73116 5.22827 9.52557 4.73826 10.0156L3.24666 6.74955ZM3.24666 6.74955C2.75671 6.25952 1.96221 6.25953 1.4722 6.74954C0.982184 7.23956 0.982184 8.03398 1.4722 8.52399L2.96379 10.0156C3.45373 10.5056 4.24823 10.5057 4.73825 10.0156L3.24666 6.74955Z" fill="#008FD2" stroke="#008FD2" stroke-width="0.4"/>
<path d="M2.9638 19.4068C3.45376 18.9167 4.24825 18.9168 4.73825 19.4068C5.22827 19.8968 5.22827 20.6912 4.73825 21.1812L3.24666 22.6728C3.24665 22.6728 3.24665 22.6728 3.24665 22.6728C2.75662 23.1629 1.96213 23.1628 1.4722 22.6728L2.9638 19.4068ZM2.9638 19.4068C2.9638 19.4068 2.9638 19.4068 2.96379 19.4068L1.4722 20.8984C0.982188 21.3884 0.982184 22.1828 1.47219 22.6728L2.9638 19.4068Z" fill="#008FD2" stroke="#008FD2" stroke-width="0.4"/>
<path d="M35.9455 13.4553H33.836C33.143 13.4553 32.5812 14.0171 32.5812 14.71C32.5812 15.403 33.143 15.9647 33.836 15.9647H35.9455C36.6384 15.9647 37.2002 15.403 37.2002 14.71C37.2002 14.0171 36.6384 13.4553 35.9455 13.4553Z" fill="#008FD2" stroke="#008FD2" stroke-width="0.4"/>
<path d="M34.7451 6.74954C35.2351 6.25954 36.0295 6.25952 36.5195 6.74954L34.7451 6.74954ZM34.7451 6.74954L33.2534 8.24115C32.7634 8.73116 32.7634 9.52558 33.2534 10.0156C33.7434 10.5055 34.5379 10.5056 35.0279 10.0156L36.5195 8.52399C37.0095 8.03398 37.0095 7.23957 36.5195 6.74955L34.7451 6.74954Z" fill="#008FD2" stroke="#008FD2" stroke-width="0.4"/>
<path d="M36.5195 20.8984L35.0279 19.4068C34.538 18.9167 33.7435 18.9168 33.2534 19.4068C32.7634 19.8968 32.7634 20.6912 33.2534 21.1812L34.7451 22.6728C35.235 23.1628 36.0295 23.1628 36.5195 22.6728C37.0095 22.1828 37.0095 21.3884 36.5195 20.8984Z" fill="#008FD2" stroke="#008FD2" stroke-width="0.4"/>
</svg>
