<svg width="33" height="32" viewBox="0 0 33 32" fill="none" xmlns="http://www.w3.org/2000/svg">
<mask id="path-1-inside-1" fill="white">
<rect x="24" width="9" height="32" rx="1"/>
</mask>
<rect x="24" width="9" height="32" rx="1" stroke="#008FD2" stroke-width="6" mask="url(#path-1-inside-1)"/>
<rect x="24" width="9" height="32" rx="1" stroke="#008FD2" stroke-width="6" mask="url(#path-1-inside-1)"/>
<rect x="24" width="9" height="32" rx="1" stroke="#008FD2" stroke-width="6" mask="url(#path-1-inside-1)"/>
<rect x="24" width="9" height="32" rx="1" stroke="#008FD2" stroke-width="6" mask="url(#path-1-inside-1)"/>
<rect x="24" width="9" height="32" rx="1" stroke="#008FD2" stroke-width="6" mask="url(#path-1-inside-1)"/>
<mask id="path-2-inside-2" fill="white">
<rect x="12" y="11" width="9" height="21" rx="1"/>
</mask>
<rect x="12" y="11" width="9" height="21" rx="1" stroke="#008FD2" stroke-width="6" mask="url(#path-2-inside-2)"/>
<rect x="12" y="11" width="9" height="21" rx="1" stroke="#008FD2" stroke-width="6" mask="url(#path-2-inside-2)"/>
<rect x="12" y="11" width="9" height="21" rx="1" stroke="#008FD2" stroke-width="6" mask="url(#path-2-inside-2)"/>
<rect x="12" y="11" width="9" height="21" rx="1" stroke="#008FD2" stroke-width="6" mask="url(#path-2-inside-2)"/>
<rect x="12" y="11" width="9" height="21" rx="1" stroke="#008FD2" stroke-width="6" mask="url(#path-2-inside-2)"/>
<mask id="path-3-inside-3" fill="white">
<rect y="19" width="9" height="13" rx="1"/>
</mask>
<rect y="19" width="9" height="13" rx="1" stroke="#008FD2" stroke-width="6" mask="url(#path-3-inside-3)"/>
<rect y="19" width="9" height="13" rx="1" stroke="#008FD2" stroke-width="6" mask="url(#path-3-inside-3)"/>
<rect y="19" width="9" height="13" rx="1" stroke="#008FD2" stroke-width="6" mask="url(#path-3-inside-3)"/>
<rect y="19" width="9" height="13" rx="1" stroke="#008FD2" stroke-width="6" mask="url(#path-3-inside-3)"/>
<rect y="19" width="9" height="13" rx="1" stroke="#008FD2" stroke-width="6" mask="url(#path-3-inside-3)"/>
</svg>
