<svg width="39" height="39" viewBox="0 0 39 39" fill="none" xmlns="http://www.w3.org/2000/svg">
<path d="M31.984 20.734H18.266V7.01599C18.266 6.31348 17.7025 5.75 17 5.75C8.04161 5.75 0.75 13.0416 0.75 22C0.75 30.9584 8.04161 38.25 17 38.25C25.9584 38.25 33.25 30.9584 33.25 22C33.25 21.305 32.679 20.734 31.984 20.734ZM17 35.718C9.43911 35.718 3.28199 29.5609 3.28199 22C3.28199 14.8628 8.7587 8.97898 15.734 8.34084V22C15.734 22.7025 16.2975 23.266 17 23.266H30.6592C30.021 30.2413 24.1372 35.718 17 35.718Z" fill="#008FD2" stroke="#008FD2" stroke-width="0.5"/>
<path d="M38.25 16.9323L38.25 16.9314C38.2347 12.9911 36.7915 9.19589 34.1876 6.24074L34.1873 6.24043C31.1024 2.75079 26.6733 0.75 22.015 0.75C21.3131 0.75 20.75 1.31306 20.75 2.01504V16.985C20.75 17.6869 21.3131 18.25 22.015 18.25H36.985C37.6869 18.25 38.25 17.6869 38.25 16.985V16.9849V16.9848V16.9847V16.9846V16.9845V16.9844V16.9843V16.9843V16.9842V16.9841V16.984V16.9839V16.9838V16.9837V16.9836V16.9836V16.9835V16.9834V16.9833V16.9832V16.9831V16.983V16.9829V16.9828V16.9828V16.9827V16.9826V16.9825V16.9824V16.9823V16.9822V16.9821V16.9821V16.982V16.9819V16.9818V16.9817V16.9816V16.9815V16.9814V16.9813V16.9813V16.9812V16.9811V16.981V16.9809V16.9808V16.9807V16.9806V16.9805V16.9805V16.9804V16.9803V16.9802V16.9801V16.98V16.9799V16.9798V16.9798V16.9797V16.9796V16.9795V16.9794V16.9793V16.9792V16.9791V16.979V16.979V16.9789V16.9788V16.9787V16.9786V16.9785V16.9784V16.9783V16.9782V16.9782V16.9781V16.978V16.9779V16.9778V16.9777V16.9776V16.9775V16.9774V16.9773V16.9773V16.9772V16.9771V16.977V16.9769V16.9768V16.9767V16.9766V16.9765V16.9765V16.9764V16.9763V16.9762V16.9761V16.976V16.9759V16.9758V16.9757V16.9756V16.9756V16.9755V16.9754V16.9753V16.9752V16.9751V16.975V16.9749V16.9748V16.9747V16.9747V16.9746V16.9745V16.9744V16.9743V16.9742V16.9741V16.974V16.9739V16.9738V16.9737V16.9737V16.9736V16.9735V16.9734V16.9733V16.9732V16.9731V16.973V16.9729V16.9728V16.9727V16.9727V16.9726V16.9725V16.9724V16.9723V16.9722V16.9721V16.972V16.9719V16.9718V16.9717V16.9716V16.9716V16.9715V16.9714V16.9713V16.9712V16.9711V16.971V16.9709V16.9708V16.9707V16.9706V16.9705V16.9705V16.9704V16.9703V16.9702V16.9701V16.97V16.9699V16.9698V16.9697V16.9696V16.9695V16.9694V16.9693V16.9692V16.9691V16.9691V16.969V16.9689V16.9688V16.9687V16.9686V16.9685V16.9684V16.9683V16.9682V16.9681V16.968V16.9679V16.9678V16.9677V16.9676V16.9676V16.9675V16.9674V16.9673V16.9672V16.9671V16.967V16.9669V16.9668V16.9667V16.9666V16.9665V16.9664V16.9663V16.9662V16.9661V16.966V16.9659V16.9658V16.9657V16.9657V16.9656V16.9655V16.9654V16.9653V16.9652V16.9651V16.965V16.9649V16.9648V16.9647V16.9646V16.9645V16.9644V16.9643V16.9642V16.9641V16.964V16.9639V16.9638V16.9637V16.9636V16.9635V16.9634V16.9633V16.9632V16.9631V16.963V16.9629V16.9628V16.9627V16.9626V16.9626V16.9625V16.9624V16.9623V16.9622V16.9621V16.962V16.9619V16.9618V16.9617V16.9616V16.9615V16.9614V16.9613V16.9612V16.9611V16.961V16.9609V16.9608V16.9607V16.9606V16.9605V16.9604V16.9603V16.9602V16.9601V16.96V16.9599V16.9598V16.9597V16.9596V16.9595V16.9594V16.9593V16.9592V16.9591V16.959V16.9589V16.9588V16.9587V16.9586V16.9585V16.9584V16.9582V16.9581V16.958V16.9579V16.9578V16.9577V16.9576V16.9575V16.9574V16.9573V16.9572V16.9571V16.957V16.9569V16.9568V16.9567V16.9566V16.9565V16.9564V16.9563V16.9562V16.9561V16.956V16.9559V16.9558V16.9557V16.9556V16.9555V16.9554V16.9552V16.9551V16.955V16.9549V16.9548V16.9547V16.9546V16.9545V16.9544V16.9543V16.9542V16.9541V16.954V16.9539V16.9538V16.9537V16.9536V16.9534V16.9533V16.9532V16.9531V16.953V16.9529V16.9528V16.9527V16.9526V16.9525V16.9524V16.9523V16.9522V16.952V16.9519V16.9518V16.9517V16.9516V16.9515V16.9514V16.9513V16.9512V16.9511V16.951V16.9508V16.9507V16.9506V16.9505V16.9504V16.9503V16.9502V16.9501V16.95V16.9499V16.9497V16.9496V16.9495V16.9494V16.9493V16.9492V16.9491V16.949V16.9489V16.9487V16.9486V16.9485V16.9484V16.9483V16.9482V16.9481V16.948V16.9478V16.9477V16.9476V16.9475V16.9474V16.9473V16.9472V16.947V16.9469V16.9468V16.9467V16.9466V16.9465V16.9464V16.9462V16.9461V16.946V16.9459V16.9458V16.9457V16.9456V16.9454V16.9453V16.9452V16.9451V16.945V16.9449V16.9447V16.9446V16.9445V16.9444V16.9443V16.9442V16.944V16.9439V16.9438V16.9437V16.9436V16.9434V16.9433V16.9432V16.9431V16.943V16.9429V16.9427V16.9426V16.9425V16.9424V16.9423V16.9421V16.942V16.9419V16.9418V16.9417V16.9415V16.9414V16.9413V16.9412V16.9411V16.9409V16.9408V16.9407V16.9406V16.9405V16.9403V16.9402V16.9401V16.94V16.9398V16.9397V16.9396V16.9395V16.9393V16.9392V16.9391V16.939V16.9389V16.9387V16.9386V16.9385V16.9384V16.9382V16.9381V16.938V16.9379V16.9377V16.9376V16.9375V16.9374V16.9372V16.9371V16.937V16.9369V16.9367V16.9366V16.9365V16.9363V16.9362V16.9361V16.936V16.9358V16.9357V16.9356V16.9355V16.9353V16.9352V16.9351V16.9349V16.9348V16.9347V16.9346V16.9344V16.9343V16.9342V16.934V16.9339V16.9338V16.9336V16.9335V16.9334V16.9333V16.9331V16.933V16.9329V16.9327V16.9326V16.9325L38.25 16.9323ZM32.2865 7.92511C34.22 10.1092 35.3897 12.8424 35.6605 15.7274H23.2801V3.34666C26.7382 3.66645 29.9683 5.29737 32.2862 7.92479L32.2865 7.92511Z" fill="#008FD2" stroke="#008FD2" stroke-width="0.5"/>
</svg>
