<svg width="14" height="22" viewBox="0 0 14 22" fill="none" xmlns="http://www.w3.org/2000/svg">
<path d="M6.47063 17.9213L0.397414 11.848C0.104508 11.5551 0.104508 11.0803 0.397414 10.7874L1.10576 10.079C1.39816 9.78664 1.87207 9.78608 2.16516 10.0778L7.00098 14.891L11.8368 10.0778C12.1299 9.78608 12.6038 9.78664 12.8962 10.079L13.6045 10.7874C13.8974 11.0803 13.8974 11.5552 13.6045 11.848L7.53132 17.9213C7.23841 18.2142 6.76354 18.2142 6.47063 17.9213Z" fill="white"/>
<path d="M6.47063 11.9213L0.397414 5.84805C0.104508 5.55514 0.104508 5.08027 0.397414 4.78739L1.10576 4.07905C1.39816 3.78664 1.87207 3.78608 2.16516 4.0778L7.00098 8.89095L11.8368 4.0778C12.1299 3.78608 12.6038 3.78664 12.8962 4.07905L13.6045 4.78739C13.8974 5.0803 13.8974 5.55517 13.6045 5.84805L7.53132 11.9213C7.23841 12.2142 6.76354 12.2142 6.47063 11.9213Z" fill="white"/>
</svg>
