<svg width="562" height="562" viewBox="0 0 562 562" fill="none" xmlns="http://www.w3.org/2000/svg">
<g clip-path="url(#clip0)">
<path d="M454.326 371.109L413.972 454L392.529 396.827L454.326 371.109Z" fill="#008FD2"/>
<path d="M392.529 396.827L413.972 454L309.788 432.748L392.529 396.827Z" fill="#008FD2"/>
<path d="M65.7857 296.496L62.3334 336.42L0.153198 370.224L65.7857 296.496Z" fill="#008FD2"/>
<path d="M62.3336 336.421L57.6538 381.658L0 370.378L62.3336 336.421Z" fill="#008FD2"/>
<path d="M285.39 344.852L147.297 402.949V313.513L285.39 344.852Z" fill="#008FD2"/>
<path d="M222.674 175.451L189.455 215.376L147.874 210.91L222.674 175.451Z" fill="#008FD2"/>
<path d="M189.455 215.376L147.874 264.579V210.91L189.455 215.376Z" fill="#008FD2"/>
<path d="M439.174 187.54L498.017 259.266L400.01 248.871L439.174 187.54Z" fill="#008FD2"/>
<path d="M498.015 259.267L355.166 319.019L400.008 248.872L498.015 259.267Z" fill="#008FD2"/>
<path d="M243.427 222.999L324.595 191.198L346.882 233.625L243.427 222.999Z" fill="#008FD2"/>
<path d="M243.427 222.999L346.882 233.625L256.278 270.277L243.427 222.999Z" fill="#008FD2"/>
<path d="M389.194 112.003L417.158 151.273L312.169 141.764L389.194 112.003Z" fill="#008FD2"/>
<path d="M561.347 109.038L519.651 125.516L497.326 109.038H561.347Z" fill="#008FD2"/>
<path d="M562.001 109.038L545.008 144.151L519.652 125.516L561.349 109.038H562.001Z" fill="#008FD2"/>
<path d="M285.93 109.039L251.867 121.782L245.768 109L285.93 109.039Z" fill="#008FD2"/>
<path d="M245.766 109L251.865 121.782L222.674 132.601L245.766 109Z" fill="#008FD2"/>
</g>
<defs>
<clipPath id="clip0">
<rect width="562" height="345" fill="white" transform="translate(0 109)"/>
</clipPath>
</defs>
</svg>
