<svg width="16" height="14" viewBox="0 0 16 14" fill="none" xmlns="http://www.w3.org/2000/svg">
<path d="M9.19719 13.0623L8.40442 13.774C8.06874 14.0753 7.52595 14.0753 7.19384 13.774L0.251758 7.545C-0.0839192 7.24365 -0.0839192 6.75636 0.251758 6.45821L7.19384 0.226013C7.52952 -0.0753378 8.07231 -0.0753378 8.40442 0.226013L9.19719 0.937715C9.53644 1.24227 9.52929 1.73918 9.1829 2.03733L4.87981 5.71766H15.143C15.6179 5.71766 16 6.06068 16 6.48706V7.51294C16 7.93932 15.6179 8.28235 15.143 8.28235H4.87981L9.1829 11.9627C9.53286 12.2608 9.54001 12.7577 9.19719 13.0623Z" fill="#00469D"/>
</svg>
