<svg width="80" height="80" viewBox="0 0 80 80" fill="none" xmlns="http://www.w3.org/2000/svg">
<path d="M0 72H80V80H0V72ZM8 40H16V68H8V40ZM28 40H36V68H28V40ZM44 40H52V68H44V40ZM64 40H72V68H64V40ZM0 20L40 0L80 20V36H0V20ZM40 24C41.0609 24 42.0783 23.5786 42.8284 22.8284C43.5786 22.0783 44 21.0609 44 20C44 18.9391 43.5786 17.9217 42.8284 17.1716C42.0783 16.4214 41.0609 16 40 16C38.9391 16 37.9217 16.4214 37.1716 17.1716C36.4214 17.9217 36 18.9391 36 20C36 21.0609 36.4214 22.0783 37.1716 22.8284C37.9217 23.5786 38.9391 24 40 24Z" fill="#DFE5EA"/>
</svg>
