<svg width="80" height="63" viewBox="0 0 80 63" fill="none" xmlns="http://www.w3.org/2000/svg">
<path d="M0 55.9062C0 59.581 2.98611 62.5625 6.66667 62.5625H73.3333C77.0139 62.5625 80 59.581 80 55.9062V31.5H0V55.9062ZM26.6667 46.4766C26.6667 45.5613 27.4167 44.8125 28.3333 44.8125H47.2222C48.1389 44.8125 48.8889 45.5613 48.8889 46.4766V52.0234C48.8889 52.9387 48.1389 53.6875 47.2222 53.6875H28.3333C27.4167 53.6875 26.6667 52.9387 26.6667 52.0234V46.4766ZM8.88889 46.4766C8.88889 45.5613 9.63889 44.8125 10.5556 44.8125H20.5556C21.4722 44.8125 22.2222 45.5613 22.2222 46.4766V52.0234C22.2222 52.9387 21.4722 53.6875 20.5556 53.6875H10.5556C9.63889 53.6875 8.88889 52.9387 8.88889 52.0234V46.4766ZM80 7.09375V13.75H0V7.09375C0 3.41895 2.98611 0.4375 6.66667 0.4375H73.3333C77.0139 0.4375 80 3.41895 80 7.09375Z" fill="#DFE5EA"/>
</svg>
