<svg width="60" height="54" viewBox="0 0 60 54" fill="none" xmlns="http://www.w3.org/2000/svg">
<path d="M59.3247 46.4076C61.2474 49.782 58.834 54 54.9938 54H5.00566C1.15805 54 -1.24424 49.7754 0.674717 46.4076L25.6691 2.52967C27.5927 -0.846281 32.4108 -0.840164 34.331 2.52967L59.3247 46.4076ZM30 37.3359C27.3537 37.3359 25.2084 39.5081 25.2084 42.1875C25.2084 44.8669 27.3537 47.0391 30 47.0391C32.6464 47.0391 34.7917 44.8669 34.7917 42.1875C34.7917 39.5081 32.6464 37.3359 30 37.3359ZM25.4508 19.8971L26.2235 34.2409C26.2596 34.9121 26.8077 35.4375 27.4716 35.4375H32.5285C33.1923 35.4375 33.7404 34.9121 33.7766 34.2409L34.5493 19.8971C34.5884 19.1721 34.0183 18.5625 33.3012 18.5625H26.6988C25.9817 18.5625 25.4117 19.1721 25.4508 19.8971Z" fill="#F44336"/>
</svg>
