<svg width="72" height="80" viewBox="0 0 72 80" fill="none" xmlns="http://www.w3.org/2000/svg">
<path d="M16 16V4C16 2.93913 16.4214 1.92172 17.1716 1.17157C17.9217 0.421427 18.9391 0 20 0H68C69.0609 0 70.0783 0.421427 70.8284 1.17157C71.5786 1.92172 72 2.93913 72 4V60C72 61.0608 71.5786 62.0782 70.8284 62.8284C70.0783 63.5785 69.0609 63.9999 68 63.9999H56V75.9999C56 78.2079 54.2 79.9999 51.972 79.9999H4.028C3.50051 80.0031 2.97759 79.902 2.48929 79.7024C2.00099 79.5029 1.55693 79.2088 1.18263 78.8371C0.808336 78.4654 0.511172 78.0234 0.308217 77.5365C0.105262 77.0496 0.000517497 76.5274 0 75.9999L0.0120001 20C0.0120001 17.792 1.812 16 4.04 16H16ZM24 16H56V56H64V7.99999H24V16ZM16 36V44H40V36H16ZM16 52V60H40V52H16Z" fill="#DFE5EA"/>
</svg>
