<svg width="52" height="52" viewBox="0 0 52 52" fill="none" xmlns="http://www.w3.org/2000/svg">
<path d="M26 0C11.6371 0 0 11.6371 0 26C0 40.3629 11.6371 52 26 52C40.3629 52 52 40.3629 52 26C52 11.6371 40.3629 0 26 0ZM38.7484 32.825C39.2411 33.3177 39.2411 34.1145 38.7484 34.6073L34.5968 38.7484C34.104 39.2411 33.3073 39.2411 32.8145 38.7484L26 31.871L19.175 38.7484C18.6823 39.2411 17.8855 39.2411 17.3927 38.7484L13.2516 34.5968C12.7589 34.104 12.7589 33.3073 13.2516 32.8145L20.129 26L13.2516 19.175C12.7589 18.6823 12.7589 17.8855 13.2516 17.3927L17.4032 13.2411C17.896 12.7484 18.6927 12.7484 19.1855 13.2411L26 20.129L32.825 13.2516C33.3177 12.7589 34.1145 12.7589 34.6073 13.2516L38.7589 17.4032C39.2516 17.896 39.2516 18.6927 38.7589 19.1855L31.871 26L38.7484 32.825Z" fill="#F44336"/>
</svg>
