<svg width="80" height="66" viewBox="0 0 80 66" fill="none" xmlns="http://www.w3.org/2000/svg">
<path d="M7.5 0.5C6.01664 0.5 4.5666 0.939867 3.33323 1.76398C2.09986 2.58809 1.13856 3.75943 0.570907 5.12987C0.00324965 6.50032 -0.145275 8.00832 0.144114 9.46318C0.433503 10.918 1.14781 12.2544 2.1967 13.3033C3.2456 14.3522 4.58197 15.0665 6.03683 15.3559C7.49168 15.6453 8.99968 15.4968 10.3701 14.9291C11.7406 14.3614 12.9119 13.4001 13.736 12.1668C14.5601 10.9334 15 9.48336 15 8C15 6.01088 14.2098 4.10322 12.8033 2.6967C11.3968 1.29018 9.48913 0.5 7.5 0.5ZM7.5 25.5C6.01664 25.5 4.5666 25.9399 3.33323 26.764C2.09986 27.5881 1.13856 28.7594 0.570907 30.1299C0.00324965 31.5003 -0.145275 33.0083 0.144114 34.4632C0.433503 35.918 1.14781 37.2544 2.1967 38.3033C3.2456 39.3522 4.58197 40.0665 6.03683 40.3559C7.49168 40.6453 8.99968 40.4968 10.3701 39.9291C11.7406 39.3614 12.9119 38.4001 13.736 37.1668C14.5601 35.9334 15 34.4834 15 33C15 31.0109 14.2098 29.1032 12.8033 27.6967C11.3968 26.2902 9.48913 25.5 7.5 25.5ZM7.5 50.5C6.01664 50.5 4.5666 50.9399 3.33323 51.764C2.09986 52.5881 1.13856 53.7594 0.570907 55.1299C0.00324965 56.5003 -0.145275 58.0083 0.144114 59.4632C0.433503 60.918 1.14781 62.2544 2.1967 63.3033C3.2456 64.3522 4.58197 65.0665 6.03683 65.3559C7.49168 65.6453 8.99968 65.4968 10.3701 64.9291C11.7406 64.3614 12.9119 63.4001 13.736 62.1668C14.5601 60.9334 15 59.4834 15 58C15 56.0109 14.2098 54.1032 12.8033 52.6967C11.3968 51.2902 9.48913 50.5 7.5 50.5ZM77.5 53H27.5C26.837 53 26.2011 53.2634 25.7322 53.7322C25.2634 54.2011 25 54.837 25 55.5V60.5C25 61.163 25.2634 61.7989 25.7322 62.2678C26.2011 62.7366 26.837 63 27.5 63H77.5C78.163 63 78.7989 62.7366 79.2678 62.2678C79.7366 61.7989 80 61.163 80 60.5V55.5C80 54.837 79.7366 54.2011 79.2678 53.7322C78.7989 53.2634 78.163 53 77.5 53ZM77.5 3H27.5C26.837 3 26.2011 3.26339 25.7322 3.73223C25.2634 4.20107 25 4.83696 25 5.5V10.5C25 11.163 25.2634 11.7989 25.7322 12.2678C26.2011 12.7366 26.837 13 27.5 13H77.5C78.163 13 78.7989 12.7366 79.2678 12.2678C79.7366 11.7989 80 11.163 80 10.5V5.5C80 4.83696 79.7366 4.20107 79.2678 3.73223C78.7989 3.26339 78.163 3 77.5 3ZM77.5 28H27.5C26.837 28 26.2011 28.2634 25.7322 28.7322C25.2634 29.2011 25 29.837 25 30.5V35.5C25 36.163 25.2634 36.7989 25.7322 37.2678C26.2011 37.7366 26.837 38 27.5 38H77.5C78.163 38 78.7989 37.7366 79.2678 37.2678C79.7366 36.7989 80 36.163 80 35.5V30.5C80 29.837 79.7366 29.2011 79.2678 28.7322C78.7989 28.2634 78.163 28 77.5 28Z" fill="#DFE5EA"/>
</svg>
