<svg width="122" height="138" viewBox="0 0 122 138" fill="none" xmlns="http://www.w3.org/2000/svg">
<path d="M73.6158 116.106H43.1867V138H19.3726V116.106H0V96.8654H19.3726V86.7239H0V67.4835H19.3726V0H72.0093C87.1924 0 99.3199 3.98077 108.392 11.9423C117.464 19.8407 122 30.3613 122 43.5041C122 56.8997 117.684 67.4203 109.053 75.0659C100.422 82.6484 88.4209 86.5343 73.0488 86.7239H43.1867V96.8654H73.6158V116.106ZM43.1867 67.4835H71.6313C80.1993 67.4835 86.7514 65.4931 91.2874 61.5124C95.8234 57.5316 98.0914 51.592 98.0914 43.6937C98.0914 36.6168 95.8549 30.8352 91.3819 26.3489C86.9719 21.8626 80.8608 19.5247 73.0488 19.3352H43.1867V67.4835Z" fill="#C5CAD0"/>
</svg>
