<svg width="94" height="82" viewBox="0 0 94 82" fill="none" xmlns="http://www.w3.org/2000/svg">
    <path d="M92.942 70.4708C95.9543 75.5949 92.1732 82 86.1569 82H7.84219C1.81428 82 -1.94931 75.5849 1.05706 70.4708L40.2149 3.84135C43.2286 -1.28509 50.7768 -1.2758 53.7852 3.84135L92.942 70.4708ZM47 56.6953C42.8541 56.6953 39.4931 59.9937 39.4931 64.0625C39.4931 68.1313 42.8541 71.4297 47 71.4297C51.146 71.4297 54.507 68.1313 54.507 64.0625C54.507 59.9937 51.146 56.6953 47 56.6953ZM39.8728 30.2141L41.0834 51.9954C41.14 53.0146 41.9988 53.8125 43.0388 53.8125H50.9612C52.0013 53.8125 52.86 53.0146 52.9166 51.9954L54.1272 30.2141C54.1884 29.1132 53.2953 28.1875 52.1718 28.1875H41.8281C40.7046 28.1875 39.8116 29.1132 39.8728 30.2141Z" fill="#DFE5EA"/>
</svg>
