<svg width="18" height="14" viewBox="0 0 18 14" fill="none" xmlns="http://www.w3.org/2000/svg">
<path d="M0 12.5C0 13.3281 0.671875 14 1.5 14H16.5C17.3281 14 18 13.3281 18 12.5V7H0V12.5ZM6 10.375C6 10.1687 6.16875 10 6.375 10H10.625C10.8313 10 11 10.1687 11 10.375V11.625C11 11.8312 10.8313 12 10.625 12H6.375C6.16875 12 6 11.8312 6 11.625V10.375ZM2 10.375C2 10.1687 2.16875 10 2.375 10H4.625C4.83125 10 5 10.1687 5 10.375V11.625C5 11.8312 4.83125 12 4.625 12H2.375C2.16875 12 2 11.8312 2 11.625V10.375ZM18 1.5V3H0V1.5C0 0.671875 0.671875 0 1.5 0H16.5C17.3281 0 18 0.671875 18 1.5Z" fill="#008FD2"/>
</svg>
