<svg width="16" height="15" viewBox="0 0 16 15" fill="none" xmlns="http://www.w3.org/2000/svg">
<path d="M0.8928 6H15.1L15.1072 14.1147C15.1072 14.6036 14.7067 15 14.2135 15H1.7937C1.67614 14.9999 1.55976 14.9769 1.45121 14.9323C1.34266 14.8878 1.24407 14.8225 1.16107 14.7403C1.07807 14.658 1.01229 14.5605 0.967494 14.4531C0.922699 14.3458 0.899763 14.2308 0.9 14.1147L0.8928 6ZM5.3 8V9.77778H10.7V8H5.3ZM0 0.888889C0 0.398222 0.4095 0 0.8928 0H15.1072C15.6004 0 16 0.394667 16 0.888889V4H0V0.888889Z" fill="#C5CAD0"/>
</svg>
