<svg width="16" height="16" viewBox="0 0 16 16" fill="none" xmlns="http://www.w3.org/2000/svg">
<path d="M14.2631 10.5944V15.2064C14.2629 15.4169 14.1799 15.6188 14.0323 15.7676C13.8848 15.9164 13.6848 16 13.4762 16H0.786865C0.682806 15.9993 0.579909 15.9778 0.484049 15.937C0.388189 15.8961 0.301244 15.8365 0.228178 15.7617C0.155112 15.6869 0.0973565 15.5983 0.0582089 15.501C0.0190614 15.4036 -0.000711413 15.2995 1.95507e-05 15.1944V5.6H4.75437C4.96453 5.6 5.16608 5.51571 5.31468 5.36569C5.46328 5.21566 5.54676 5.01217 5.54676 4.8V0H13.4723C13.9089 0 14.2631 0.364 14.2631 0.7936V3.8056L7.13234 11.0056L7.12759 14.396L10.4921 14.4008L14.2631 10.5944ZM14.8796 5.4464L16 6.5776L9.83677 12.8L8.71475 12.7984L8.71633 11.6688L14.8796 5.4464ZM1.95507e-05 4L3.96198 0.00240002V4H1.95507e-05Z" fill="#C5CAD0"/>
</svg>
