<svg width="758" height="465" viewBox="0 0 758 465" fill="none" xmlns="http://www.w3.org/2000/svg">
<g opacity="0.6" clip-path="url(#clip0)">
<path d="M612.774 353.277L558.347 465L529.426 387.941L612.774 353.277Z" fill="#E6F4FA"/>
<path d="M529.425 387.941L558.346 465L417.828 436.356L529.425 387.941Z" fill="#E6F4FA"/>
<path d="M88.7292 252.712L84.0728 306.523L0.207031 352.084L88.7292 252.712Z" fill="#E6F4FA"/>
<path d="M84.0728 306.523L77.7608 367.496L0 352.292L84.0728 306.523Z" fill="#E6F4FA"/>
<path d="M384.921 317.887L198.668 396.192V275.647L384.921 317.887Z" fill="#E6F4FA"/>
<path d="M300.333 89.5645L255.528 143.376L199.445 137.357L300.333 89.5645Z" fill="#E6F4FA"/>
<path d="M255.528 143.376L199.445 209.693V137.356L255.528 143.376Z" fill="#E6F4FA"/>
<path d="M592.339 105.858L671.704 202.532L539.516 188.522L592.339 105.858Z" fill="#E6F4FA"/>
<path d="M671.7 202.533L479.031 283.069L539.512 188.522L671.7 202.533Z" fill="#E6F4FA"/>
<path d="M328.324 153.651L437.8 110.789L467.859 167.974L328.324 153.651Z" fill="#E6F4FA"/>
<path d="M328.324 153.65L467.859 167.972L345.656 217.373L328.324 153.65Z" fill="#E6F4FA"/>
<path d="M524.927 4.04785L562.643 56.9772L421.039 44.16L524.927 4.04785Z" fill="#E6F4FA"/>
<path d="M757.119 0.0517578L700.881 22.2613L670.77 0.0517578H757.119Z" fill="#E6F4FA"/>
<path d="M758 0.0517578L735.081 47.3768L700.883 22.2613L757.121 0.0517578H758Z" fill="#E6F4FA"/>
<path d="M385.649 0.0518915L339.707 17.228L331.48 0L385.649 0.0518915Z" fill="#E6F4FA"/>
<path d="M331.478 0L339.704 17.228L300.332 31.8095L331.478 0Z" fill="#E6F4FA"/>
</g>
<defs>
<clipPath id="clip0">
<rect width="758" height="465" fill="white"/>
</clipPath>
</defs>
</svg>
