<svg width="24" height="24" viewBox="0 0 24 24" fill="none" xmlns="http://www.w3.org/2000/svg">
<path fill-rule="evenodd" clip-rule="evenodd" d="M3 24H21C22.6563 24 24 22.6563 24 21V9C24 7.34372 22.6563 6 21 6H3C1.34372 6 0 7.34372 0 9V21C0 22.6563 1.34372 24 3 24ZM22 21C22 21.5517 21.5517 22 21 22H3C2.44828 22 2 21.5517 2 21V20H22V21ZM22 18H2V9C2 8.44829 2.44828 8 3 8H21C21.5517 8 22 8.44829 22 9V18ZM13 16H11C10.4477 16 10 15.5523 10 15C10 14.4477 10.4477 14 11 14H13C13.5523 14 14 14.4477 14 15C14 15.5523 13.5523 16 13 16ZM8 3V4.5H6V3C6 1.34372 7.34372 0 9 0H15C16.6563 0 18 1.34372 18 3V4.5H16V3C16 2.44828 15.5517 2 15 2H9C8.44829 2 8 2.44828 8 3Z" fill="#C5CAD0"/>
</svg>
