<svg width="22" height="28" viewBox="0 0 22 28" fill="none" xmlns="http://www.w3.org/2000/svg">
<path fill-rule="evenodd" clip-rule="evenodd" d="M3.00024 0H19.0002C20.6525 0 22.0002 1.34772 22.0002 3V21C22.0002 22.6523 20.6525 24 19.0002 24H16L16.0002 26C16.0002 26.7384 15.235 27.2087 14.587 26.911L14.4857 26.8575L9.72304 24H3.00024C1.40626 24 0.0968475 22.7471 0.00535099 21.1758L0.000244141 21V3C0.000244141 1.34745 1.34723 0 3.00024 0ZM19.0002 2H3.00024C2.45195 2 2.00024 2.45186 2.00024 3V21C2.00024 21.5481 2.45195 22 3.00024 22H10.0002C10.1815 22 10.3593 22.0493 10.5147 22.1425L14 24.234L14.0002 23C14.0002 22.4872 14.3863 22.0645 14.8836 22.0067L15.0002 22H19.0002C19.548 22 20.0002 21.5477 20.0002 21V3C20.0002 2.45228 19.548 2 19.0002 2ZM16.0237 5.9634C16.576 5.9634 17.0237 6.41112 17.0237 6.9634C17.0237 7.47624 16.6377 7.89891 16.1404 7.95667L16.0237 7.9634H9.02374C8.47146 7.9634 8.02374 7.51568 8.02374 6.9634C8.02374 6.45056 8.40978 6.02789 8.90712 5.97013L9.02374 5.9634H16.0237ZM17.0237 16.9634C17.0237 16.4111 16.576 15.9634 16.0237 15.9634H9.02374L8.90712 15.9701C8.40978 16.0279 8.02374 16.4506 8.02374 16.9634C8.02374 17.5157 8.47146 17.9634 9.02374 17.9634H16.0237L16.1404 17.9567C16.6377 17.8989 17.0237 17.4762 17.0237 16.9634ZM16.0237 10.9634C16.576 10.9634 17.0237 11.4111 17.0237 11.9634C17.0237 12.4762 16.6377 12.8989 16.1404 12.9567L16.0237 12.9634H9.02374C8.47146 12.9634 8.02374 12.5157 8.02374 11.9634C8.02374 11.4506 8.40978 11.0279 8.90712 10.9701L9.02374 10.9634H16.0237ZM7.03934 6.9634C7.03934 6.41112 6.59163 5.9634 6.03934 5.9634H5.97734L5.86072 5.97013C5.36338 6.02789 4.97734 6.45056 4.97734 6.9634C4.97734 7.51568 5.42506 7.9634 5.97734 7.9634H6.03934L6.15597 7.95667C6.6533 7.89891 7.03934 7.47624 7.03934 6.9634ZM6.03934 15.8491C6.59163 15.8491 7.03934 16.2968 7.03934 16.8491C7.03934 17.3619 6.6533 17.7846 6.15597 17.8424L6.03934 17.8491H5.97734C5.42506 17.8491 4.97734 17.4014 4.97734 16.8491C4.97734 16.3363 5.36338 15.9136 5.86072 15.8558L5.97734 15.8491H6.03934ZM7.03934 11.9062C7.03934 11.3539 6.59163 10.9062 6.03934 10.9062H5.97734L5.86072 10.9129C5.36338 10.9707 4.97734 11.3934 4.97734 11.9062C4.97734 12.4585 5.42506 12.9062 5.97734 12.9062H6.03934L6.15597 12.8995C6.6533 12.8417 7.03934 12.419 7.03934 11.9062Z" fill="#C5CAD0"/>
</svg>
