<svg width="24" height="24" viewBox="0 0 24 24" xmlns="http://www.w3.org/2000/svg" xmlns:xlink="http://www.w3.org/1999/xlink">
    <path id="path1" fill="#c5cad0" fill-rule="evenodd" stroke="none" d="M 13 0 C 12.4477 0 12 0.447716 12 1 L 12 11 C 12 11.5523 12.4477 12 13 12 L 23 12 C 23.5522 12 24 11.5523 24 11 C 24 4.924721 19.075199 0 13 0 Z M 8.72757 0.451656 C 9.259 0.301331 9.81168 0.610279 9.962 1.14171 C 10.1123 1.67314 9.80338 2.225821 9.27194 2.376141 C 5.00299 3.583691 1.99976 7.49663 1.99976 11.9999 C 1.99976 17.5226 6.47704 21.999901 11.9998 21.999901 C 16.5093 21.999901 20.4261 18.988701 21.628099 14.7123 C 21.7775 14.1806 22.3297 13.8708 22.861401 14.0202 C 23.393 14.1697 23.7029 14.7218 23.5534 15.2535 C 22.1105 20.3871 17.4112 23.999901 11.9998 23.999901 C 5.37247 23.999901 -0.000244 18.627199 -0.000244 11.9999 C -0.000244 6.5959 3.60298 1.901239 8.72757 0.451656 Z M 14 2.055 L 14 10 L 21.944 10 L 21.9042 9.68215 C 21.316601 5.677349 18.0916 2.529989 14.0496 2.060551 L 14 2.055 Z"/>
</svg>
