<svg width="15" height="16" viewBox="0 0 15 16" fill="none" xmlns="http://www.w3.org/2000/svg">
<path d="M1.4341 14.5659C-0.478034 12.6538 -0.478034 9.55912 1.4341 7.64698L8.03853 1.04256C9.4286 -0.347518 11.6804 -0.347518 13.0705 1.04256C14.4605 2.43263 14.4605 4.68442 13.0705 6.0745L7.72403 11.4209C6.85602 12.2889 5.44708 12.2889 4.57907 11.4209C3.71106 10.5529 3.71106 9.14398 4.57907 8.27597L9.29651 3.55853L10.5545 4.81651L5.78044 9.59057C5.4345 9.93651 6.06349 10.5655 6.40943 10.2196L11.8125 4.81651C12.5044 4.12462 12.5044 2.99243 11.8125 2.30054C11.1206 1.60865 9.9884 1.60865 9.29651 2.30054L2.69209 8.90496C1.47813 10.1189 1.47813 12.094 2.69209 13.3079C3.90604 14.5219 5.88108 14.5219 7.09504 13.3079L13.0705 7.33248L14.3285 8.59047L8.35302 14.5659C6.44088 16.478 3.34624 16.478 1.4341 14.5659Z" fill="#C5CAD0"/>
</svg>
