<svg width="32" height="44" viewBox="0 0 32 44" fill="none" xmlns="http://www.w3.org/2000/svg">
<path d="M18.6667 11.6875V0H2C0.891667 0 0 0.919531 0 2.0625V41.9375C0 43.0805 0.891667 44 2 44H30C31.1083 44 32 43.0805 32 41.9375V13.75H20.6667C19.5667 13.75 18.6667 12.8219 18.6667 11.6875ZM24.0983 30.2509H18.6667V37.1259C18.6667 37.8855 18.07 38.5009 17.3333 38.5009H14.6667C13.93 38.5009 13.3333 37.8855 13.3333 37.1259V30.2509H7.90167C6.71167 30.2509 6.1175 28.765 6.9625 27.8996L14.9975 19.6754C15.5517 19.1073 16.4467 19.1073 17.0008 19.6754L25.0358 27.8996C25.8817 28.765 25.2883 30.2509 24.0983 30.2509ZM31.4167 9.02344L23.2583 0.601562C22.8833 0.214844 22.375 0 21.8417 0H21.3333V11H32V10.4758C32 9.93437 31.7917 9.41016 31.4167 9.02344Z" fill="#E5E7E9"/>
</svg>
