<svg width="135" height="24" viewBox="0 0 135 24" fill="none" xmlns="http://www.w3.org/2000/svg">
<path d="M23.2275 18.3087H11.779C11.4481 18.3773 11.1172 18.4459 10.8525 18.6516C10.5216 18.8573 10.2569 19.1316 10.0584 19.4058L7.74219 23.5887H26.2054L23.2275 18.3087Z" fill="#9A554B"/>
<path d="M16.8093 16.6629C17.1402 16.8686 17.5372 17.0058 17.8681 17.0058H22.5005L13.2358 0.411499L10.2578 5.69149L15.8828 15.7715C16.1475 16.1144 16.4122 16.4572 16.8093 16.6629Z" fill="#9A554B"/>
<path d="M12.1112 12.2744C12.1112 11.8629 12.045 11.4515 11.8465 11.1087L9.53033 6.99438L0.265625 23.5887H6.15534L11.7142 13.5772C12.045 13.1658 12.1112 12.7544 12.1112 12.2744Z" fill="#9A554B"/>
<path d="M39.3741 11.3143C39.3741 11.1086 39.5726 3.22292 39.5726 3.22292L37.5211 11.3143H35.9329L33.8814 3.22292C33.8814 3.22292 34.08 10.9715 34.08 11.3143H32.3594V1.44006H34.9403L36.7932 8.77719L38.6461 1.44006H41.227V11.3143H39.3741Z" fill="#9A554B"/>
<path d="M51.0901 11.3143H49.3033V4.86863L45.068 10.1486V11.3143H43.2812V1.44006H45.068V7.8172L49.3033 2.53721V1.44006H51.0901V11.3143Z" fill="#9A554B"/>
<path d="M59.0967 11.3143V6.8572H54.9938V11.3143H53.207V1.44006H54.9938V5.14292H59.0967V1.44006H60.8835V11.3143H59.0967Z" fill="#9A554B"/>
<path d="M70.6105 1.44006V11.3143H68.8238V3.15435H64.8532V11.3143H63.0664V1.44006H70.6105Z" fill="#9A554B"/>
<path d="M76.4366 1.44006C78.4219 1.44006 79.8116 2.67434 79.8116 4.73148C79.8116 6.51434 78.8189 7.95435 76.3042 7.95435H74.5175V11.3143H72.7969V1.44006H76.4366ZM74.5175 6.44577H76.1057C77.363 6.44577 78.0248 5.82862 78.0248 4.66291C78.0248 3.08577 76.7675 3.0172 75.9072 3.0172H74.5175V6.44577Z" fill="#9A554B"/>
<path d="M85.3026 1.16589C88.2143 1.16589 89.8687 3.63446 89.8687 6.30875C89.8687 8.57161 88.6776 11.5202 85.3026 11.5202C82.5231 11.5202 80.8026 9.12016 80.8026 6.37731C80.7364 3.49731 82.5231 1.16589 85.3026 1.16589ZM85.3026 9.80588C86.6923 9.80588 88.0158 8.70874 88.0158 6.44588C88.0158 4.66302 87.1555 2.88018 85.2364 2.88018C83.6481 2.88018 82.5231 4.18304 82.5231 6.30875C82.5231 7.81732 83.2511 9.80588 85.3026 9.80588Z" fill="#9A554B"/>
<path d="M98.6045 11.3143C98.6045 11.1086 98.8031 3.22292 98.8031 3.22292L96.7516 11.3143H95.1634L93.1119 3.22292C93.1119 3.22292 93.3104 10.9715 93.3104 11.3143H91.5898V1.44006H94.1707L96.0237 8.77719L97.8766 1.44006H100.457V11.3143H98.6045Z" fill="#9A554B"/>
<path d="M106.016 3.08577V11.2458H104.229V3.08577H101.648V1.44006H108.663V3.08577H106.016Z" fill="#9A554B"/>
<path d="M114.154 1.16589C117.066 1.16589 118.72 3.63446 118.72 6.30875C118.72 8.57161 117.529 11.5202 114.154 11.5202C111.375 11.5202 109.654 9.12016 109.654 6.37731C109.588 3.49731 111.441 1.16589 114.154 1.16589ZM114.154 9.80588C115.544 9.80588 116.933 8.70874 116.933 6.44588C116.933 4.66302 116.073 2.88018 114.154 2.88018C112.566 2.88018 111.441 4.18304 111.441 6.30875C111.441 7.81732 112.169 9.80588 114.154 9.80588Z" fill="#9A554B"/>
<path d="M124.147 1.44006C126.133 1.44006 127.522 2.67434 127.522 4.73148C127.522 6.51434 126.53 7.95435 124.015 7.95435H122.228V11.3143H120.441V1.44006H124.147ZM122.228 6.44577H123.816C125.074 6.44577 125.736 5.82862 125.736 4.66291C125.736 3.08577 124.478 3.0172 123.618 3.0172H122.228V6.44577Z" fill="#9A554B"/>
<path d="M134.539 1.43991V3.08562H130.634V11.2456H128.848V1.37134H134.539" fill="#9A554B"/>
<path d="M35.9991 13.7142C37.9844 13.7142 39.3741 14.9485 39.3741 17.0057C39.3741 18.7885 38.3814 20.2285 35.9329 20.2285H34.1461V23.5885H32.3594V13.7142H35.9991ZM34.08 18.7199H35.6682C36.9256 18.7199 37.5873 18.1028 37.5873 16.9371C37.5873 15.36 36.33 15.2914 35.4697 15.2914H34.08V18.7199Z" fill="#9A554B"/>
<path d="M44.8025 13.4401C47.7143 13.4401 49.3687 15.9086 49.3687 18.5829C49.3687 20.8458 48.1775 23.7944 44.8025 23.7944C42.0231 23.7944 40.3025 21.3944 40.3025 18.6515C40.2363 15.7715 42.0893 13.4401 44.8025 13.4401ZM44.8025 22.0801C46.1922 22.0801 47.5157 20.9829 47.5157 18.72C47.5157 16.9372 46.6554 15.1543 44.7363 15.1543C43.1481 15.1543 42.0231 16.4572 42.0231 18.5829C42.0893 20.1601 42.8172 22.0801 44.8025 22.0801Z" fill="#9A554B"/>
<path d="M59.0289 20.8458C58.6981 21.6687 57.6392 23.8629 54.926 23.8629C52.676 23.8629 50.4922 22.2858 50.4922 18.5829C50.4922 16.3887 51.6834 13.5087 54.9922 13.5087C57.4407 13.5087 58.4334 15.1544 58.8304 16.5258L57.0437 17.0058C56.9113 15.9087 56.051 15.1544 54.9922 15.1544C53.4701 15.1544 52.3451 16.3887 52.3451 18.5829C52.3451 19.9544 52.8745 22.0801 54.9922 22.0801C56.2495 22.0801 57.0437 21.1201 57.3084 20.0915L59.0289 20.8458Z" fill="#9A554B"/>
<path d="M68.5602 20.8458C68.2293 21.6687 67.1705 23.8629 64.4573 23.8629C62.2073 23.8629 60.0234 22.2858 60.0234 18.5829C60.0234 16.3887 61.2146 13.5087 64.5234 13.5087C66.972 13.5087 67.9646 15.1544 68.3617 16.5258L66.5749 17.0058C66.4426 15.9087 65.5823 15.1544 64.5234 15.1544C63.0014 15.1544 61.8764 16.3887 61.8764 18.5829C61.8764 19.9544 62.4058 22.0801 64.5234 22.0801C65.7808 22.0801 66.5749 21.1201 66.8396 20.0915L68.5602 20.8458Z" fill="#9A554B"/>
<path d="M77.6916 23.5885H75.9049V17.1428L71.6696 22.4228V23.5885H69.8828V13.7142H71.6696V20.0914L75.9049 14.8114V13.7142H77.6916V23.5885Z" fill="#9A554B"/>
<path d="M87.6174 23.5885H85.8307V17.1428L81.5954 22.4228V23.5885H79.8086V13.7142H81.5954V20.0914L85.8307 14.8114V13.7142H87.6174V23.5885Z" fill="#9A554B"/>
</svg>
