<svg width="120" height="24" viewBox="0 0 120 24" fill="none" xmlns="http://www.w3.org/2000/svg">
<path d="M43.9062 19.0398H79.9997L83.9832 16.9749H119.999" stroke="#002E5E" stroke-width="0.49"/>
<path d="M113.394 11.9129H114.345V9.13019L116.552 11.9129H117.761L115.395 9.03377L117.619 6.51888H116.48L114.345 9.07663V6.51888H113.394V11.9129ZM110.49 11.9129H111.427V6.51888H110.49V8.72309H108.016V6.51888H107.062V11.9129H108.016V9.60692H110.49V11.9129ZM103.06 7.72945L103.853 9.64174H102.268L103.06 7.72142V7.72945ZM100.374 11.9129H101.333L101.9 10.5336H104.223L104.787 11.9129H105.8L103.511 6.50281H102.679L100.39 11.9129H100.374ZM97.4622 9.44891C98.1257 9.44891 98.4104 9.7944 98.4104 10.2524C98.4104 10.7104 98.1203 11.0559 97.4139 11.0559C97.2151 11.0559 97.0298 11.0398 96.8122 11.0237V9.49444C97.0277 9.46537 97.2448 9.45016 97.4622 9.44891ZM95.8506 11.9129C96.1675 11.9129 96.6322 11.9451 97.2581 11.9451C98.585 11.9451 99.3452 11.3023 99.3452 10.1908C99.3452 9.19179 98.6576 8.5624 97.5267 8.5624C97.2843 8.5633 97.0421 8.57851 96.8015 8.60793V7.40271H99.0121V6.51888H95.8667V11.9129H95.8506ZM88.4234 11.9129H89.377V8.03478L91.0988 10.4077H91.2385L92.9469 8.01335V11.9129H93.887V6.51888H92.9925L91.2304 9.03913L89.3824 6.51888H88.4234V11.9129ZM82.6778 11.9129L85.5117 8.08299V11.9129H86.4626V6.51888H85.6299L82.8068 10.3542V6.51888H81.8586V11.9129H82.6778ZM80.0723 10.6782C79.7049 10.9617 79.2529 11.1144 78.7883 11.1121C78.5364 11.1242 78.2847 11.0833 78.0496 10.992C77.8145 10.9007 77.6014 10.761 77.424 10.5822C77.2466 10.4033 77.109 10.1892 77.0201 9.95381C76.9312 9.71841 76.8931 9.46698 76.9081 9.2159C76.9081 8.04549 77.6655 7.31968 78.6728 7.31968C79.1076 7.30706 79.5347 7.43585 79.8896 7.6866L80.3194 6.97954C79.8636 6.61115 79.2917 6.41568 78.7051 6.42781C76.9188 6.42781 75.9384 7.6625 75.9384 9.20786C75.9384 10.8898 77.0719 11.9933 78.7292 11.9933C79.4303 11.9933 80.118 11.7442 80.4564 11.3826L80.0965 10.6702L80.0723 10.6782ZM70.961 11.9129H71.9119V9.13019L74.1387 11.9129H75.3367L72.9756 9.03377L75.2131 6.51888H74.0715L71.9387 9.07663V6.51888H70.9878V11.9129H70.961ZM65.9917 9.60692H68.4253C68.2641 10.6059 67.4825 11.1121 66.5611 11.1121C66.056 11.1136 65.5647 10.9478 65.1643 10.6407L64.7534 11.4442C65.2796 11.8291 65.9195 12.0279 66.5719 12.0093C68.3017 12.0093 69.3977 10.9059 69.3977 9.21857C69.3977 7.53126 68.2883 6.42781 66.6981 6.42781C66.0275 6.40345 65.3693 6.61274 64.8366 7.01971L65.2073 7.72945C65.5709 7.45609 66.0144 7.3093 66.4698 7.31164C67.4932 7.31164 68.2319 7.81516 68.4172 8.71506H65.9997V9.59889L65.9917 9.60692ZM63.5554 10.6782C63.1907 10.9611 62.7414 11.1138 62.2794 11.1121C62.0275 11.1242 61.7758 11.0833 61.5407 10.992C61.3056 10.9007 61.0925 10.761 60.9151 10.5822C60.7377 10.4033 60.6001 10.1892 60.5112 9.95381C60.4224 9.71841 60.3842 9.46698 60.3992 9.2159C60.3992 8.04549 61.1566 7.31968 62.1613 7.31968C62.6013 7.30492 63.0342 7.43374 63.3942 7.6866L63.8159 6.97954C63.351 6.60852 62.7669 6.41821 62.172 6.44388C60.3857 6.44388 59.4053 7.67857 59.4053 9.22393C59.4053 10.9059 60.5388 12.0093 62.1962 12.0093C62.8325 12.0311 63.4532 11.8098 63.9314 11.3907L63.5661 10.6782H63.5554ZM53.6167 9.2159C53.6167 8.09906 54.3876 7.31968 55.4218 7.31968C55.668 7.31825 55.9119 7.36698 56.1385 7.46288C56.3651 7.55879 56.5697 7.69984 56.7398 7.87738C56.9098 8.05493 57.0416 8.26524 57.1272 8.4954C57.2129 8.72557 57.2504 8.97075 57.2376 9.2159C57.2376 10.2872 56.558 11.1121 55.4218 11.1121C55.1773 11.1095 54.9358 11.0579 54.7116 10.9604C54.4875 10.863 54.2852 10.7216 54.1169 10.5448C53.9486 10.3679 53.8175 10.1592 53.7316 9.93092C53.6457 9.70265 53.6066 9.4595 53.6167 9.2159ZM52.6094 9.2159C52.6094 10.8979 53.8182 12.0013 55.4218 12.0013C55.7934 12.0142 56.1637 11.9512 56.5099 11.8161C56.8562 11.6811 57.1711 11.4768 57.4353 11.2159C57.6994 10.955 57.9073 10.643 58.0461 10.2991C58.1848 9.95512 58.2516 9.58651 58.2422 9.2159C58.2422 7.53662 57.0308 6.43585 55.4218 6.43585C55.0521 6.42479 54.6841 6.48906 54.3402 6.62472C53.9963 6.76037 53.6838 6.96457 53.4218 7.22481C53.1598 7.48505 52.9538 7.79586 52.8164 8.13821C52.679 8.48057 52.6132 8.84728 52.6228 9.2159H52.6094ZM49.5016 7.38931C50.1489 7.38931 50.4981 7.67053 50.4981 8.23029C50.4981 8.79005 50.0576 9.10609 49.4935 9.10609C49.2681 9.10481 49.043 9.0905 48.8193 9.06323V7.40271C49.0879 7.40271 49.3082 7.38931 49.5016 7.38931ZM48.8193 11.9129V9.96581C49.053 9.98992 49.3565 9.98992 49.5231 9.98992C50.8151 9.98992 51.5054 9.1543 51.5054 8.23833C51.5054 7.32236 51.0004 6.50281 49.4076 6.50281C49.0288 6.50281 48.1719 6.51888 47.8711 6.51888V11.9129H48.8193Z" fill="#0054A6"/>
<path d="M20.0233 0.00267827L17.638 0.889187L17.2109 0L20.0233 0.00267827Z" fill="#0054A6"/>
<path d="M27.2531 0.208862L29.2113 2.9407L21.8594 2.27917L27.2531 0.208862Z" fill="#0054A6"/>
<path d="M39.3113 0.00268555L36.3914 1.14899L34.8281 0.00268555H39.3113Z" fill="#0054A6"/>
<path d="M15.5934 4.62268L13.2672 7.40005L10.3555 7.08937L15.5934 4.62268Z" fill="#0054A6"/>
<path d="M4.60767 13.0432L4.36592 15.8206L0.0117188 18.1721L4.60767 13.0432Z" fill="#0054A6"/>
<path d="M30.7503 5.46362L34.8709 10.4532L28.0078 9.73011L30.7503 5.46362Z" fill="#0054A6"/>
<path d="M31.8156 18.2336L28.9898 24L27.4883 20.0227L31.8156 18.2336Z" fill="#0054A6"/>
<path d="M17.0469 7.93039L22.7307 5.71814L24.2913 8.66959L17.0469 7.93039Z" fill="#0054A6"/>
<path d="M17.2108 0L17.6379 0.889186L15.5938 1.64178L17.2108 0Z" fill="#0091D0"/>
<path d="M13.2672 7.40004L10.3555 10.8229V7.08936L13.2672 7.40004Z" fill="#0091D0"/>
<path d="M39.3561 0.00268555L38.1635 2.44527L36.3906 1.14899L39.3104 0.00268555H39.3561Z" fill="#0091D0"/>
<path d="M4.36495 15.8206L4.03724 18.9675L0 18.1828L4.36495 15.8206Z" fill="#0091D0"/>
<path d="M34.8742 10.4532L24.8711 14.6099L28.0112 9.7301L34.8742 10.4532Z" fill="#0091D0"/>
<path d="M19.9864 16.407L10.3164 20.4459V14.2269L19.9864 16.407Z" fill="#0091D0"/>
<path d="M27.4893 20.0227L28.9908 23.9999L21.6953 22.5215L27.4893 20.0227Z" fill="#0091D0"/>
<path d="M17.0469 7.93042L24.2913 8.66962L17.9467 11.2193L17.0469 7.93042Z" fill="#0091D0"/>
</svg>
