<svg width="113" height="27" viewBox="0 0 113 27" fill="none" xmlns="http://www.w3.org/2000/svg">
<path d="M44.3281 26H76.6262L80.6505 23.8514H113" stroke="#002E5E" stroke-width="0.49"/>
<path d="M49.2027 8.50511V6.98078C49.379 7.00029 49.6149 7.00029 49.7451 7.00029C50.7213 7.00029 51.2447 6.35099 51.2447 5.6348C51.2447 4.91862 50.8623 4.28046 49.6556 4.28046H48.4922V8.50511H49.2027ZM49.7179 4.97156C50.2115 4.97156 50.4745 5.18893 50.4745 5.62644C50.4745 6.06395 50.141 6.3064 49.7125 6.3064C49.5498 6.3064 49.3735 6.3064 49.2027 6.27853V4.98271C49.3979 4.98271 49.5715 4.98271 49.7179 4.98271V4.97156ZM51.7627 6.40951C51.751 6.69946 51.7983 6.98872 51.9015 7.25883C52.0048 7.52894 52.1617 7.77396 52.3623 7.97824C52.5629 8.18252 52.8027 8.34158 53.0665 8.44525C53.3302 8.54892 53.6121 8.59494 53.8942 8.58036C54.1754 8.5907 54.4558 8.54182 54.718 8.43671C54.9802 8.3316 55.2187 8.17249 55.4189 7.96917C55.619 7.76584 55.7766 7.52258 55.8819 7.25437C55.9872 6.98615 56.0379 6.69864 56.0311 6.40951C56.042 6.11916 55.994 5.82967 55.8901 5.55942C55.7863 5.28916 55.6289 5.04405 55.4279 4.83964C55.227 4.63524 54.9869 4.47601 54.7228 4.37207C54.4588 4.26813 54.1766 4.22175 53.8942 4.23587C53.613 4.22588 53.3329 4.27514 53.0709 4.38062C52.809 4.4861 52.5709 4.64556 52.3712 4.8492C52.1715 5.05283 52.0145 5.29632 51.9098 5.56466C51.8052 5.833 51.7551 6.12052 51.7627 6.40951ZM52.5247 6.40951C52.5129 6.21688 52.5396 6.02381 52.6033 5.84221C52.6669 5.66061 52.7661 5.49433 52.8946 5.35363C53.0232 5.21294 53.1785 5.1008 53.3509 5.02415C53.5232 4.9475 53.7091 4.90795 53.8969 4.90795C54.0847 4.90795 54.2705 4.9475 54.4429 5.02415C54.6153 5.1008 54.7706 5.21294 54.8991 5.35363C55.0277 5.49433 55.1269 5.66061 55.1905 5.84221C55.2541 6.02381 55.2809 6.21688 55.2691 6.40951C55.2691 7.24552 54.7538 7.88925 53.8942 7.88925C53.7088 7.88754 53.5257 7.84756 53.3556 7.77168C53.1856 7.69579 53.0321 7.58555 52.9044 7.44751C52.7766 7.30947 52.6772 7.14645 52.612 6.96813C52.5467 6.78981 52.5171 6.59984 52.5247 6.40951ZM59.7084 7.55206C59.4288 7.77156 59.0866 7.89009 58.7348 7.88925C58.5445 7.89825 58.3545 7.86594 58.1771 7.79442C57.9998 7.7229 57.8391 7.61378 57.7055 7.47416C57.572 7.33455 57.4685 7.16758 57.402 6.98414C57.3354 6.80069 57.3072 6.6049 57.3192 6.40951C57.3192 5.49547 57.8941 4.92976 58.6535 4.92976C58.9827 4.9196 59.3065 5.01719 59.5782 5.20843L59.9009 4.65109C59.5501 4.35624 59.1063 4.20358 58.6535 4.22194C57.2975 4.22194 56.5572 5.18614 56.5572 6.39557C56.541 6.68524 56.5847 6.97515 56.6853 7.24624C56.7859 7.51734 56.9412 7.76349 57.141 7.96852C57.3408 8.17355 57.5805 8.33282 57.8445 8.43587C58.1084 8.53892 58.3906 8.58341 58.6724 8.56642C59.1516 8.58416 59.6195 8.41491 59.9823 8.09268L59.7111 7.53534L59.7084 7.55206ZM63.5429 7.55206C63.2644 7.77154 62.923 7.8901 62.5721 7.88925C62.3815 7.89866 62.1912 7.86665 62.0135 7.79531C61.8359 7.72397 61.6748 7.6149 61.541 7.47525C61.4071 7.33559 61.3034 7.16847 61.2367 6.98483C61.17 6.80118 61.1417 6.60514 61.1538 6.40951C61.1538 5.49547 61.7287 4.92976 62.4907 4.92976C62.8199 4.91999 63.1436 5.01754 63.4155 5.20843L63.7355 4.65109C63.3855 4.35665 62.9427 4.20401 62.4907 4.22194C61.1348 4.22194 60.3945 5.18614 60.3945 6.39557C60.3779 6.6851 60.4212 6.97495 60.5215 7.24605C60.6218 7.51715 60.7768 7.76334 60.9764 7.96842C61.176 8.1735 61.4155 8.33282 61.6794 8.43589C61.9432 8.53896 62.2252 8.58345 62.507 8.56642C62.9871 8.58487 63.4561 8.41558 63.8195 8.09268L63.5483 7.53534L63.5429 7.55206ZM65.17 8.51626L67.3205 5.52333V8.50511H68.0391V4.29161H67.4073L65.2595 7.28732V4.29161H64.5409V8.50511L65.17 8.51626ZM69.8073 8.51626L71.9578 5.52333V8.50511H72.6764V4.29161H72.0445L69.8968 7.28732V4.29161H69.1754V8.50511L69.8073 8.51626ZM69.8262 3.28003C69.8669 3.79278 70.2954 4.14112 70.9978 4.14112C71.6405 4.14112 72.1205 3.79836 72.1394 3.28003H71.4642C71.4425 3.53919 71.2608 3.62837 70.9978 3.62837C70.7347 3.62837 70.5449 3.51411 70.4988 3.28003H69.8262ZM76.6601 7.55206C76.3806 7.77156 76.0383 7.89009 75.6865 7.88925C75.4958 7.89906 75.3052 7.86735 75.1271 7.79619C74.9491 7.72504 74.7878 7.61603 74.6536 7.47633C74.5195 7.33663 74.4155 7.16937 74.3487 6.98553C74.2818 6.80168 74.2535 6.60539 74.2655 6.40951C74.2655 5.49547 74.8377 4.92976 75.5998 4.92976C75.9289 4.91999 76.2526 5.01754 76.5245 5.20843L76.8472 4.65109C76.4961 4.35669 76.0526 4.2041 75.5998 4.22194C74.2438 4.22194 73.5035 5.18614 73.5035 6.39557C73.4869 6.6851 73.5302 6.97495 73.6305 7.24605C73.7308 7.51715 73.8859 7.76334 74.0854 7.96842C74.285 8.1735 74.5246 8.33282 74.7884 8.43589C75.0522 8.53896 75.3343 8.58345 75.616 8.56642C76.0961 8.58487 76.5652 8.41558 76.9286 8.09268L76.6574 7.53534L76.6601 7.55206ZM77.6499 8.51626H78.3713V6.34263L80.0472 8.51626H80.9584L79.1685 6.2646L80.8553 4.3139H79.9875L78.3604 6.31197V4.29161H77.6418V8.50511L77.6499 8.51626ZM82.2167 8.51626L84.3644 5.52333V8.50511H85.0858V4.29161H84.4458L82.298 7.28732V4.29161H81.5767V8.50511L82.2167 8.51626ZM86.8539 8.51626L89.0017 5.52333V8.50511H89.723V4.29161H89.0912L86.9407 7.28732V4.29161H86.222V8.50511L86.8539 8.51626ZM86.8702 3.28003C86.9109 3.79278 87.3393 4.14112 88.0417 4.14112C88.6871 4.14112 89.1671 3.79836 89.1834 3.28003H88.5108C88.4864 3.53919 88.3047 3.62837 88.0417 3.62837C87.7786 3.62837 87.5915 3.51411 87.5454 3.28003H86.8702Z" fill="#002E5E"/>
<path d="M88.7768 16.6562H89.49V12.4427H88.8582L86.7158 15.4384V12.4427H85.9944V16.6562H86.6263L88.7768 13.6549V16.6562ZM88.9476 11.4255H88.2724C88.2507 11.6847 88.069 11.7739 87.806 11.7739C87.5429 11.7739 87.3666 11.654 87.3205 11.4255H86.648C86.6887 11.9383 87.1171 12.2866 87.8195 12.2866C88.4622 12.2866 88.9422 11.9439 88.9612 11.4255H88.9476ZM84.145 16.6562H84.8582V12.4427H84.145V16.6562ZM83.6026 15.2182C83.6026 14.3822 83.1172 13.8583 82.1057 13.8583C81.9525 13.8584 81.7995 13.8677 81.6474 13.8862V12.4427H80.9287V16.6562C81.1674 16.6562 81.5606 16.6562 81.9457 16.6562C82.9951 16.6562 83.6026 16.0988 83.6026 15.2071V15.2182ZM82.8433 15.235C82.8433 15.7282 82.5721 15.9762 82.0297 15.9762C81.8887 15.9762 81.7585 15.9762 81.6419 15.9567V14.5801C81.7742 14.5622 81.9072 14.5519 82.0406 14.5494C82.545 14.5494 82.8379 14.7835 82.8379 15.235H82.8433ZM79.0765 16.6562H79.7925V12.4427H79.0765V14.1649H77.2027V12.4427H76.484V16.6562H77.2027V14.856H79.0765V16.6562ZM74.5369 13.1338H75.8657V12.4427H72.4868V13.1338H73.8156V16.6562H74.5369V13.1338ZM72.164 13.7859C72.164 13.092 71.7844 12.4315 70.5776 12.4315H69.4115V16.6562H70.1329V15.1319C70.3092 15.1514 70.5424 15.1514 70.6753 15.1514C71.6515 15.1514 72.1722 14.5021 72.1722 13.7859H72.164ZM71.4047 13.7859C71.4047 14.2568 71.0712 14.4658 70.6427 14.4658C70.4773 14.4658 70.3037 14.4658 70.1329 14.438V13.1338C70.3254 13.1338 70.5017 13.1338 70.6481 13.1338C71.139 13.1338 71.4047 13.3512 71.4047 13.7887V13.7859ZM68.5817 14.5494C68.5926 14.2591 68.5446 13.9696 68.4407 13.6993C68.3369 13.4291 68.1795 13.184 67.9785 12.9796C67.7776 12.7752 67.5375 12.6159 67.2734 12.512C67.0094 12.4081 66.7272 12.3617 66.4448 12.3758C66.1636 12.3658 65.8835 12.4151 65.6215 12.5206C65.3596 12.626 65.1215 12.7855 64.9218 12.9891C64.7221 13.1928 64.5651 13.4362 64.4604 13.7046C64.3558 13.9729 64.3057 14.2605 64.3133 14.5494C64.3017 14.8389 64.3488 15.1277 64.4517 15.3974C64.5547 15.6671 64.7111 15.9118 64.9111 16.116C65.111 16.3202 65.3502 16.4794 65.6133 16.5834C65.8764 16.6875 66.1578 16.7341 66.4394 16.7203C66.7206 16.7306 67.001 16.6817 67.2632 16.5766C67.5254 16.4715 67.7639 16.3124 67.964 16.1091C68.1642 15.9058 68.3218 15.6625 68.427 15.3943C68.5323 15.1261 68.5831 14.8386 68.5763 14.5494H68.5817ZM67.8197 14.5494C67.8197 15.3855 67.3044 16.0292 66.4448 16.0292C66.2601 16.0264 66.0778 15.9856 65.9087 15.9092C65.7397 15.8328 65.5872 15.7224 65.4603 15.5845C65.3334 15.4465 65.2347 15.2839 65.17 15.1061C65.1052 14.9284 65.0758 14.7391 65.0834 14.5494C65.0716 14.3568 65.0984 14.1637 65.162 13.9821C65.2256 13.8005 65.3248 13.6343 65.4534 13.4936C65.5819 13.3529 65.7372 13.2407 65.9096 13.1641C66.082 13.0874 66.2678 13.0479 66.4556 13.0479C66.6435 13.0479 66.8293 13.0874 67.0017 13.1641C67.174 13.2407 67.3293 13.3529 67.4579 13.4936C67.5865 13.6343 67.6856 13.8005 67.7492 13.9821C67.8129 14.1637 67.8396 14.3568 67.8278 14.5494H67.8197ZM62.7621 16.6562H63.4807V12.4427H60.2021V16.6562H60.9235V13.1338H62.7513V16.6562H62.7621ZM56.8367 14.5494C56.8367 13.6354 57.4089 13.0697 58.1709 13.0697C58.5001 13.0599 58.8238 13.1575 59.0957 13.3484L59.4184 12.791C59.0671 12.4971 58.6237 12.3445 58.1709 12.3619C56.815 12.3619 56.0747 13.3261 56.0747 14.5355C56.0561 14.8262 56.0979 15.1176 56.1973 15.3903C56.2967 15.6631 56.4515 15.9111 56.6513 16.1177C56.8511 16.3243 57.0913 16.4849 57.3562 16.5888C57.621 16.6927 57.9043 16.7375 58.1872 16.7203C58.6673 16.7387 59.1363 16.5694 59.4998 16.2465L59.2286 15.6892C58.9489 15.9083 58.6068 16.0268 58.255 16.0264C58.0647 16.0354 57.8747 16.0031 57.6973 15.9316C57.52 15.86 57.3593 15.7509 57.2257 15.6113C57.0922 15.4717 56.9887 15.3047 56.9222 15.1213C56.8556 14.9378 56.8274 14.742 56.8394 14.5467L56.8367 14.5494ZM55.752 16.6562L53.9649 14.4045L55.6517 12.4538H54.7784L53.1513 14.4519V12.4427H52.43V16.6562H53.1513V14.4909L54.8245 16.6646L55.752 16.6562ZM51.6137 14.5439C51.6137 13.2313 50.7568 12.3758 49.5527 12.3758C49.0435 12.3581 48.5441 12.5226 48.1399 12.8412L48.411 13.3985C48.6885 13.1867 49.0254 13.0733 49.371 13.0753C50.1439 13.0753 50.7053 13.4654 50.8463 14.1704H49.0293V14.8616H50.8761C50.827 15.2048 50.6537 15.5163 50.3907 15.7338C50.1277 15.9513 49.7946 16.0588 49.4578 16.0348C49.0763 16.0352 48.7054 15.9059 48.4029 15.6669L48.0938 16.2883C48.4929 16.5848 48.9765 16.7367 49.4687 16.7203C50.7812 16.7203 51.6137 15.862 51.6137 14.5439Z" fill="#002E5E"/>
<path d="M111.275 13.7859C111.275 13.092 110.893 12.4315 109.686 12.4315H108.522V16.6562H109.241V15.1318C109.417 15.1513 109.653 15.1513 109.784 15.1513C110.76 15.1513 111.283 14.502 111.283 13.7859H111.275ZM110.513 13.7859C110.513 14.2568 110.179 14.4658 109.751 14.4658C109.588 14.4658 109.412 14.4658 109.241 14.438V13.1338C109.436 13.1338 109.61 13.1338 109.756 13.1338C110.25 13.1338 110.513 13.3511 110.513 13.7886V13.7859ZM106.575 13.1338H107.904V12.4427H104.517V13.1338H105.846V16.6562H106.575V13.1338ZM103.175 16.6562H103.891V12.4427H103.175V14.1649H101.304V12.4427H100.582V16.6562H101.304V14.856H103.175V16.6562ZM97.2087 16.6562H99.6493V15.9623H97.9382V14.8727H99.4134V14.1816H97.9382V13.1338H99.5897V12.4427H97.2168V16.6562H97.2087ZM95.8229 17.4058H96.4955V15.9623H95.945V12.4427H95.2236V15.9623H93.4257V12.4427H92.707V16.6562H95.8284V17.4058H95.8229Z" fill="#002E5E"/>
<path d="M20.2143 0.00278671L17.8062 0.925188L17.375 0L20.2143 0.00278671Z" fill="#1B75BC"/>
<path d="M17.3747 0L17.8059 0.925188L15.7422 1.70825L17.3747 0Z" fill="#ED1C24"/>
<path d="M27.5157 0.217407L29.4926 3.05985L22.0703 2.37153L27.5157 0.217407Z" fill="#1B75BC"/>
<path d="M39.6862 0.00280762L36.7384 1.19552L35.1602 0.00280762H39.6862Z" fill="#1B75BC"/>
<path d="M15.7412 4.80981L13.3928 7.69963L10.4531 7.37637L15.7412 4.80981Z" fill="#1B75BC"/>
<path d="M13.3928 7.69972L10.4531 11.2611V7.37646L13.3928 7.69972Z" fill="#ED1C24"/>
<path d="M39.7322 0.00280762L38.5281 2.54429L36.7383 1.19552L39.6861 0.00280762H39.7322Z" fill="#ED1C24"/>
<path d="M4.65168 13.5713L4.40761 16.4611L0.0117188 18.9078L4.65168 13.5713Z" fill="#1B75BC"/>
<path d="M4.40674 16.4611L4.0759 19.7354L0 18.9189L4.40674 16.4611Z" fill="#ED1C24"/>
<path d="M31.05 5.68494L35.21 10.8766L28.2812 10.1242L31.05 5.68494Z" fill="#1B75BC"/>
<path d="M35.2083 10.8766L25.1094 15.2015L28.2795 10.1241L35.2083 10.8766Z" fill="#ED1C24"/>
<path d="M20.1767 17.0714L10.4141 21.2737V14.803L20.1767 17.0714Z" fill="#ED1C24"/>
<path d="M32.1188 18.9719L29.2659 24.9717L27.75 20.8334L32.1188 18.9719Z" fill="#1B75BC"/>
<path d="M27.7518 20.8335L29.2677 24.9718L21.9023 23.4335L27.7518 20.8335Z" fill="#ED1C24"/>
<path d="M17.2109 8.25141L22.9492 5.94958L24.5248 9.02054L17.2109 8.25141Z" fill="#1B75BC"/>
<path d="M17.2109 8.25146L24.5248 9.0206L18.1194 11.6735L17.2109 8.25146Z" fill="#ED1C24"/>
</svg>
