<svg width="18" height="22" viewBox="0 0 18 22" fill="none" xmlns="http://www.w3.org/2000/svg">
<path d="M9.00001 22C10.4191 22 11.5702 20.7689 11.5702 19.25H6.42979C6.42979 20.7689 7.58091 22 9.00001 22ZM17.6541 15.5671C16.8778 14.6751 15.4254 13.3332 15.4254 8.9375C15.4254 5.59883 13.2364 2.92617 10.2849 2.27047V1.375C10.2849 0.615742 9.70957 0 9.00001 0C8.29046 0 7.7151 0.615742 7.7151 1.375V2.27047C4.76359 2.92617 2.57467 5.59883 2.57467 8.9375C2.57467 13.3332 1.12221 14.6751 0.345965 15.5671C0.104894 15.8443 -0.00198115 16.1756 2.77789e-05 16.5C0.00444741 17.2047 0.521545 17.875 1.28976 17.875H16.7103C17.4785 17.875 17.996 17.2047 18 16.5C18.002 16.1756 17.8951 15.8439 17.6541 15.5671Z" fill="#008FD2"/>
</svg>
