<svg width="22" height="17" viewBox="0 0 22 17" fill="none" xmlns="http://www.w3.org/2000/svg">
<path d="M21.6955 9.70387L14.3618 16.7027C13.707 17.3276 12.5721 16.8902 12.5721 15.9945V11.9952H6.63525C6.05467 11.9952 5.58758 11.5494 5.58758 10.9953V6.99598C5.58758 6.44191 6.05467 5.99615 6.63525 5.99615H12.5721V1.99681C12.5721 1.1053 13.7027 0.663702 14.3618 1.2886L21.6955 8.28744C22.1015 8.67904 22.1015 9.31227 21.6955 9.70387ZM8.38137 16.4944V14.828C8.38137 14.5531 8.14564 14.3281 7.85753 14.3281H4.19068C3.41803 14.3281 2.79379 13.7324 2.79379 12.995V4.99632C2.79379 4.25894 3.41803 3.6632 4.19068 3.6632H7.85753C8.14564 3.6632 8.38137 3.43824 8.38137 3.16329V1.4969C8.38137 1.22194 8.14564 0.99698 7.85753 0.99698H4.19068C1.87708 0.99698 0 2.78835 0 4.99632V12.995C0 15.203 1.87708 16.9943 4.19068 16.9943H7.85753C8.14564 16.9943 8.38137 16.7694 8.38137 16.4944Z" fill="#B2B8BF"/>
</svg>
