<?xml version="1.0" encoding="utf-8"?>
<!-- Generator: Adobe Illustrator 24.0.3, SVG Export Plug-In . SVG Version: 6.00 Build 0)  -->
<svg width="140" height="28" version="1.1" id="Layer_1" xmlns="http://www.w3.org/2000/svg" xmlns:xlink="http://www.w3.org/1999/xlink" x="0px" y="0px"
	 viewBox="0 0 140 28" style="enable-background:new 0 0 140 28;" xml:space="preserve">
<style type="text/css">
	.st0{fill:none;stroke:#002E5E;stroke-width:0.49;}
	.st1{fill:#0054A6;}
	.st2{fill:#0091D0;}
</style>
<path class="st0" d="M51.2,22.2h42.1l4.6-2.4h42"/>
<path class="st1" d="M132.3,13.9h1.1v-3.2l2.6,3.2h1.4l-2.8-3.4l2.6-2.9h-1.3l-2.5,3v-3h-1.1V13.9z M128.9,13.9h1.1V7.6h-1.1v2.6
	H126V7.6h-1.1v6.3h1.1v-2.7h2.9V13.9z M120.2,9l0.9,2.2h-1.8L120.2,9L120.2,9z M117.1,13.9h1.1l0.7-1.6h2.7l0.7,1.6h1.2l-2.7-6.3h-1
	L117.1,13.9L117.1,13.9z M113.7,11c0.8,0,1.1,0.4,1.1,0.9c0,0.5-0.3,0.9-1.2,0.9c-0.2,0-0.4,0-0.7,0v-1.8
	C113.2,11,113.5,11,113.7,11z M111.8,13.9c0.4,0,0.9,0,1.6,0c1.5,0,2.4-0.7,2.4-2c0-1.2-0.8-1.9-2.1-1.9c-0.3,0-0.6,0-0.8,0.1V8.6
	h2.6v-1h-3.7L111.8,13.9L111.8,13.9z M103.2,13.9h1.1V9.4l2,2.8h0.2l2-2.8v4.5h1.1V7.6h-1l-2.1,2.9l-2.2-2.9h-1.1V13.9z M96.5,13.9
	l3.3-4.5v4.5h1.1V7.6h-1l-3.3,4.5V7.6h-1.1v6.3H96.5z M93.4,12.5c-0.4,0.3-1,0.5-1.5,0.5c-0.3,0-0.6,0-0.9-0.1
	c-0.3-0.1-0.5-0.3-0.7-0.5c-0.2-0.2-0.4-0.5-0.5-0.7c-0.1-0.3-0.1-0.6-0.1-0.9c0-1.4,0.9-2.2,2.1-2.2c0.5,0,1,0.1,1.4,0.4l0.5-0.8
	c-0.5-0.4-1.2-0.7-1.9-0.6c-2.1,0-3.2,1.4-3.2,3.2c0,2,1.3,3.2,3.3,3.2c0.8,0,1.6-0.3,2-0.7L93.4,12.5L93.4,12.5z M82.8,13.9h1.1
	v-3.2l2.6,3.2h1.4l-2.8-3.4l2.6-2.9h-1.3l-2.5,3v-3h-1.1L82.8,13.9L82.8,13.9z M77,11.2h2.8c-0.2,1.2-1.1,1.8-2.2,1.8
	c-0.6,0-1.2-0.2-1.6-0.5l-0.5,0.9c0.6,0.4,1.4,0.7,2.1,0.7c2,0,3.3-1.3,3.3-3.3c0-2-1.3-3.3-3.1-3.3c-0.8,0-1.6,0.2-2.2,0.7L76.1,9
	c0.4-0.3,0.9-0.5,1.5-0.5c1.2,0,2.1,0.6,2.3,1.6H77L77,11.2L77,11.2z M74.1,12.5c-0.4,0.3-0.9,0.5-1.5,0.5c-0.3,0-0.6,0-0.9-0.1
	c-0.3-0.1-0.5-0.3-0.7-0.5c-0.2-0.2-0.4-0.5-0.5-0.7c-0.1-0.3-0.1-0.6-0.1-0.9c0-1.4,0.9-2.2,2.1-2.2c0.5,0,1,0.1,1.4,0.4l0.5-0.8
	c-0.5-0.4-1.2-0.7-1.9-0.6c-2.1,0-3.2,1.4-3.2,3.2c0,2,1.3,3.2,3.3,3.2c0.7,0,1.5-0.2,2-0.7L74.1,12.5L74.1,12.5z M62.6,10.8
	c0-1.3,0.9-2.2,2.1-2.2c0.3,0,0.6,0.1,0.8,0.2C65.8,8.8,66,9,66.2,9.2c0.2,0.2,0.4,0.5,0.5,0.7c0.1,0.3,0.1,0.6,0.1,0.8
	c0,1.2-0.8,2.2-2.1,2.2c-0.3,0-0.6-0.1-0.8-0.2c-0.3-0.1-0.5-0.3-0.7-0.5c-0.2-0.2-0.3-0.4-0.4-0.7C62.6,11.3,62.5,11,62.6,10.8z
	 M61.4,10.8c0,2,1.4,3.2,3.3,3.2c0.4,0,0.9-0.1,1.3-0.2c0.4-0.2,0.8-0.4,1.1-0.7c0.3-0.3,0.6-0.7,0.7-1.1c0.2-0.4,0.2-0.8,0.2-1.3
	c0-2-1.4-3.2-3.3-3.2c-0.4,0-0.9,0.1-1.3,0.2c-0.4,0.2-0.8,0.4-1.1,0.7c-0.3,0.3-0.5,0.7-0.7,1.1C61.5,9.9,61.4,10.3,61.4,10.8
	L61.4,10.8z M57.8,8.6c0.8,0,1.2,0.3,1.2,1s-0.5,1-1.2,1c-0.3,0-0.5,0-0.8-0.1V8.6C57.3,8.6,57.5,8.6,57.8,8.6z M57,13.9v-2.3
	c0.3,0,0.6,0,0.8,0c1.5,0,2.3-1,2.3-2s-0.6-2-2.4-2c-0.4,0-1.4,0-1.8,0v6.3H57z"/>
<path class="st1" d="M23.4,0l-2.8,1l-0.5-1L23.4,0z"/>
<path class="st1" d="M31.8,0.2l2.3,3.2l-8.6-0.8L31.8,0.2z"/>
<path class="st1" d="M45.9,0l-3.4,1.3L40.6,0H45.9z"/>
<path class="st1" d="M18.2,5.4l-2.7,3.2l-3.4-0.4L18.2,5.4z"/>
<path class="st1" d="M5.4,15.2l-0.3,3.2L0,21.2L5.4,15.2z"/>
<path class="st1" d="M35.9,6.4l4.8,5.8l-8-0.8L35.9,6.4z"/>
<path class="st1" d="M37.1,21.3L33.8,28l-1.8-4.6L37.1,21.3z"/>
<path class="st1" d="M19.9,9.3l6.6-2.6l1.8,3.4L19.9,9.3z"/>
<path class="st2" d="M20.1,0l0.5,1l-2.4,0.9L20.1,0z"/>
<path class="st2" d="M15.5,8.6l-3.4,4V8.3L15.5,8.6z"/>
<path class="st2" d="M45.9,0l-1.4,2.8l-2.1-1.5L45.9,0L45.9,0z"/>
<path class="st2" d="M5.1,18.5l-0.4,3.7L0,21.2L5.1,18.5z"/>
<path class="st2" d="M40.7,12.2L29,17l3.7-5.7L40.7,12.2z"/>
<path class="st2" d="M23.3,19.1L12,23.9v-7.3L23.3,19.1z"/>
<path class="st2" d="M32.1,23.4l1.8,4.6l-8.5-1.7L32.1,23.4z"/>
<path class="st2" d="M19.9,9.3l8.5,0.9l-7.4,3L19.9,9.3z"/>
</svg>
