<svg width="24" height="18" viewBox="0 0 24 18" fill="none" xmlns="http://www.w3.org/2000/svg">
<path d="M23.6641 8.48042L19.2604 1.66841C19.0778 1.3859 18.8303 1.15426 18.54 0.994048C18.2497 0.833835 17.9255 0.750005 17.5963 0.75H6.40371C6.07446 0.750001 5.7503 0.833829 5.46 0.994043C5.16971 1.15426 4.92226 1.3859 4.73962 1.66841L0.335917 8.48042C0.116878 8.81921 -4.82218e-06 9.21728 1.49213e-10 9.62446L1.49213e-10 15.1875C1.49213e-10 16.3266 0.895417 17.25 2 17.25H22C23.1046 17.25 24 16.3266 24 15.1875V9.62446C24 9.21728 23.8831 8.81921 23.6641 8.48042ZM6.7605 3.5H17.2395L20.7951 9H15.6667L14.3333 11.75H9.66667L8.33333 9H3.20492L6.7605 3.5Z" fill="#C5CAD0"/>
</svg>
