<svg width="22" height="25" viewBox="0 0 22 25" fill="none" xmlns="http://www.w3.org/2000/svg">
<g clip-path="url(#clip0)">
<path d="M9.00001 25C10.4191 25 11.5702 23.7689 11.5702 22.25H6.42979C6.42979 23.7689 7.58091 25 9.00001 25ZM17.6541 18.5671C16.8778 17.6751 15.4254 16.3332 15.4254 11.9375C15.4254 8.59883 13.2364 5.92617 10.2849 5.27047V4.375C10.2849 3.61574 9.70957 3 9.00001 3C8.29046 3 7.7151 3.61574 7.7151 4.375V5.27047C4.76359 5.92617 2.57467 8.59883 2.57467 11.9375C2.57467 16.3332 1.12221 17.6751 0.345965 18.5671C0.104894 18.8443 -0.00198115 19.1756 2.77789e-05 19.5C0.00444741 20.2047 0.521545 20.875 1.28976 20.875H16.7103C17.4785 20.875 17.996 20.2047 18 19.5C18.002 19.1756 17.8951 18.8439 17.6541 18.5671Z" fill="#008FD2"/>
</g>
<circle cx="16" cy="6" r="5" fill="#EB5757" stroke="white" stroke-width="2"/>
<defs>
<clipPath id="clip0">
<rect width="18" height="22" fill="white" transform="translate(0 3)"/>
</clipPath>
</defs>
</svg>
